<svg width="28" height="29" viewBox="0 0 28 29" fill="none" xmlns="http://www.w3.org/2000/svg">
<path d="M14 0.5C21.732 0.5 28 6.76801 28 14.5C28 22.232 21.732 28.5 14 28.5C6.26801 28.5 0 22.232 0 14.5C0 6.76801 6.26801 0.5 14 0.5ZM22.3105 10.1895C21.7248 9.60367 20.7752 9.60367 20.1895 10.1895L12.25 18.1289L7.31055 13.1895L7.19629 13.0859C6.60714 12.6058 5.73848 12.6404 5.18945 13.1895C4.60367 13.7752 4.60367 14.7248 5.18945 15.3105L12.25 22.3711L22.3105 12.3105C22.8963 11.7248 22.8963 10.7752 22.3105 10.1895Z" fill="#1A1700"/>
</svg>
