<svg width="118" height="118" viewBox="0 0 118 118" fill="none" xmlns="http://www.w3.org/2000/svg">
<path d="M59 0C91.5848 0 118 26.4152 118 59C118 91.5848 91.5848 118 59 118C26.4152 118 0 91.5848 0 59C0 26.4152 26.4152 0 59 0ZM59 29.2637C42.5773 29.2637 29.2637 42.5773 29.2637 59C29.2637 75.4227 42.5773 88.7363 59 88.7363C75.4226 88.7362 88.7354 75.4226 88.7354 59C88.7353 42.5774 75.4226 29.2638 59 29.2637Z" fill="#E2EDFF"/>
<path d="M29.2666 59.4722C29.5164 75.5196 42.4762 88.4794 58.5234 88.73V117.997C26.3139 117.743 0.252476 91.6819 0 59.4722H29.2666Z" fill="#EDEDF8"/>
<path d="M100.718 100.718C90.0741 111.362 75.3828 117.958 59.1504 118H58.8457C58.7395 117.999 58.6334 117.997 58.5273 117.997V88.73C58.684 88.7324 58.8408 88.7368 58.998 88.7368C67.2096 88.7367 74.6434 85.4074 80.0244 80.0259L100.718 100.718Z" fill="#E1F6EB"/>
</svg>
