<svg width="46" height="46" viewBox="0 0 46 46" fill="none" xmlns="http://www.w3.org/2000/svg">
<rect width="46" height="46" rx="23" fill="url(#paint0_linear_1566_9096)"/>
<path d="M32.2913 16.6118C31.7805 16.1008 31.1741 15.6955 30.5066 15.4189C29.8392 15.1423 29.1238 15 28.4013 15C27.6788 15 26.9634 15.1423 26.2959 15.4189C25.6285 15.6955 25.022 16.1008 24.5113 16.6118L23.4513 17.6718L22.3913 16.6118C21.3596 15.5801 19.9603 15.0005 18.5013 15.0005C17.0423 15.0005 15.643 15.5801 14.6113 16.6118C13.5796 17.6435 13 19.0428 13 20.5018C13 21.9609 13.5796 23.3601 14.6113 24.3918L15.6713 25.4518L23.4513 33.2318L31.2313 25.4518L32.2913 24.3918C32.8023 23.8811 33.2076 23.2746 33.4842 22.6072C33.7608 21.9397 33.9031 21.2243 33.9031 20.5018C33.9031 19.7793 33.7608 19.0639 33.4842 18.3965C33.2076 17.729 32.8023 17.1226 32.2913 16.6118Z" fill="white"/>
<defs>
<linearGradient id="paint0_linear_1566_9096" x1="23" y1="0" x2="23" y2="46" gradientUnits="userSpaceOnUse">
<stop stop-color="#C2F5DF"/>
<stop offset="1" stop-color="#8BB0DD"/>
</linearGradient>
</defs>
</svg>
