<?xml version="1.0" encoding="UTF-8"?>
<svg xmlns="http://www.w3.org/2000/svg" xmlns:xlink="http://www.w3.org/1999/xlink" viewBox="0 0 475 322">
  <defs>
    <style>
      .cls-1 {
        fill: url(#linear-gradient);
      }

      .cls-1, .cls-2, .cls-3, .cls-4, .cls-5, .cls-6, .cls-7, .cls-8, .cls-9, .cls-10, .cls-11 {
        stroke-width: 0px;
      }

      .cls-2 {
        fill: url(#linear-gradient-6);
      }

      .cls-3 {
        fill: #8b8f8d;
        mix-blend-mode: overlay;
      }

      .cls-12 {
        isolation: isolate;
      }

      .cls-4 {
        fill: url(#linear-gradient-5);
      }

      .cls-5 {
        fill: url(#linear-gradient-2);
      }

      .cls-6 {
        fill: url(#linear-gradient-7);
      }

      .cls-7 {
        fill: url(#linear-gradient-3);
      }

      .cls-8 {
        fill: url(#linear-gradient-9);
      }

      .cls-9 {
        fill: url(#linear-gradient-8);
      }

      .cls-10 {
        fill: url(#linear-gradient-10);
      }

      .cls-11 {
        fill: url(#linear-gradient-4);
      }
    </style>
    <linearGradient id="linear-gradient" x1="2.31" y1="321.89" x2="472.69" y2="-.11" gradientTransform="translate(0 321.89) scale(1 -1)" gradientUnits="userSpaceOnUse">
      <stop offset="0" stop-color="#4b5f77"/>
      <stop offset="1" stop-color="#55b4ba"/>
    </linearGradient>
    <linearGradient id="linear-gradient-2" x1="-27.47" y1="278.4" x2="442.92" y2="-43.6" xlink:href="#linear-gradient"/>
    <linearGradient id="linear-gradient-3" x1="-67.86" y1="219.38" x2="402.52" y2="-102.62" xlink:href="#linear-gradient"/>
    <linearGradient id="linear-gradient-4" x1="102.92" y1="468.87" x2="573.31" y2="146.87" xlink:href="#linear-gradient"/>
    <linearGradient id="linear-gradient-5" x1="118.66" y1="491.86" x2="589.04" y2="169.86" xlink:href="#linear-gradient"/>
    <linearGradient id="linear-gradient-6" x1="-98.24" y1="175.01" x2="372.15" y2="-146.99" xlink:href="#linear-gradient"/>
    <linearGradient id="linear-gradient-7" x1="-49.59" y1="246.09" x2="420.8" y2="-75.91" xlink:href="#linear-gradient"/>
    <linearGradient id="linear-gradient-8" x1="27.26" y1="358.35" x2="497.65" y2="36.35" xlink:href="#linear-gradient"/>
    <linearGradient id="linear-gradient-9" x1="-34.31" y1="268.4" x2="436.08" y2="-53.6" xlink:href="#linear-gradient"/>
    <linearGradient id="linear-gradient-10" x1="104.17" y1="470.69" x2="574.56" y2="148.69" xlink:href="#linear-gradient"/>
  </defs>
  <g class="cls-12">
    <g id="Layer_1" data-name="Layer 1">
      <rect class="cls-1" y="0" width="475" height="322" rx="20" ry="20"/>
      <path class="cls-5" d="m261,253s0,0,0,0c-.1,1-.18,2-.27,3,.09,0,.18,0,.27,0,47.77,0,89.41,26.72,110.78,66h3.39c-21.63-40.99-64.69-69-114.17-69Z"/>
      <path class="cls-3" d="m261,253s0,0,0,0c-.1,1-.18,2-.27,3,.09,0,.18,0,.27,0,47.77,0,89.41,26.72,110.78,66h3.39c-21.63-40.99-64.69-69-114.17-69Z"/>
      <path class="cls-7" d="m257.71,256.04c.08-1,.17-2.01.27-3-48.21,1.11-89.96,28.81-111.15,68.96h3.39c20.87-38.38,61.1-64.76,107.49-65.96Z"/>
      <path class="cls-3" d="m257.71,256.04c.08-1,.17-2.01.27-3-48.21,1.11-89.96,28.81-111.15,68.96h3.39c20.87-38.38,61.1-64.76,107.49-65.96Z"/>
      <path class="cls-11" d="m394.11,84.17c11.18,12.76,27.59,20.83,45.89,20.83,13.03,0,25.09-4.1,35-11.05v-20.39c-4.95-.37-9.95-.56-15-.56-23.08,0-45.25,3.94-65.89,11.17Z"/>
      <path class="cls-3" d="m394.11,84.17c11.18,12.76,27.59,20.83,45.89,20.83,13.03,0,25.09-4.1,35-11.05v-20.39c-4.95-.37-9.95-.56-15-.56-23.08,0-45.25,3.94-65.89,11.17Z"/>
      <path class="cls-4" d="m379,44c0,14.24,4.89,27.33,13.07,37.71,21.25-7.57,44.12-11.7,67.93-11.7,5.05,0,10.05.19,15,.56V20c0-11.05-8.95-20-20-20h-57.22c-11.56,11.1-18.78,26.7-18.78,44Z"/>
      <path class="cls-3" d="m379,44c0,14.24,4.89,27.33,13.07,37.71,21.25-7.57,44.12-11.7,67.93-11.7,5.05,0,10.05.19,15,.56V20c0-11.05-8.95-20-20-20h-57.22c-11.56,11.1-18.78,26.7-18.78,44Z"/>
      <circle class="cls-2" cx="105" cy="286" r="14"/>
      <circle class="cls-3" cx="105" cy="286" r="14"/>
      <path class="cls-6" d="m262.99,322h3.09c-3.97-15.69-6.08-32.1-6.08-49,0-5.73.26-11.39.73-17-1.01,0-2.01.01-3.02.04-.46,5.59-.71,11.25-.71,16.96,0,16.89,2.09,33.3,5.99,49Z"/>
      <path class="cls-3" d="m262.99,322h3.09c-3.97-15.69-6.08-32.1-6.08-49,0-5.73.26-11.39.73-17-1.01,0-2.01.01-3.02.04-.46,5.59-.71,11.25-.71,16.96,0,16.89,2.09,33.3,5.99,49Z"/>
      <path class="cls-9" d="m394.11,84.17c-.7-.8-1.38-1.62-2.04-2.46-72.62,25.86-126.3,91.96-134.09,171.33,1-.02,2.01-.04,3.02-.04,7.82-78.43,61.15-143.65,133.11-168.83Z"/>
      <path class="cls-3" d="m394.11,84.17c-.7-.8-1.38-1.62-2.04-2.46-72.62,25.86-126.3,91.96-134.09,171.33,1-.02,2.01-.04,3.02-.04,7.82-78.43,61.15-143.65,133.11-168.83Z"/>
      <path class="cls-8" d="m261,253c-1.01,0-2.01.02-3.02.04-.1,1-.18,2-.27,3,1-.03,2.01-.04,3.02-.04.08-1,.17-2.01.27-3Z"/>
      <path class="cls-3" d="m261,253c-1.01,0-2.01.02-3.02.04-.1,1-.18,2-.27,3,1-.03,2.01-.04,3.02-.04.08-1,.17-2.01.27-3Z"/>
      <path class="cls-3" d="m261,253c-1.01,0-2.01.02-3.02.04-.1,1-.18,2-.27,3,1-.03,2.01-.04,3.02-.04.08-1,.17-2.01.27-3Z"/>
      <path class="cls-10" d="m460,73c5.05,0,10.05.19,15,.56v-3.01c-4.95-.36-9.95-.56-15-.56-23.82,0-46.68,4.14-67.93,11.7.66.84,1.34,1.66,2.04,2.46,20.64-7.22,42.81-11.17,65.89-11.17Z"/>
      <path class="cls-3" d="m460,73c5.05,0,10.05.19,15,.56v-3.01c-4.95-.36-9.95-.56-15-.56-23.82,0-46.68,4.14-67.93,11.7.66.84,1.34,1.66,2.04,2.46,20.64-7.22,42.81-11.17,65.89-11.17Z"/>
      <path class="cls-3" d="m460,73c5.05,0,10.05.19,15,.56v-3.01c-4.95-.36-9.95-.56-15-.56-23.82,0-46.68,4.14-67.93,11.7.66.84,1.34,1.66,2.04,2.46,20.64-7.22,42.81-11.17,65.89-11.17Z"/>
    </g>
  </g>
</svg>