<svg width="28" height="28" viewBox="0 0 28 28" fill="none" xmlns="http://www.w3.org/2000/svg">
<path d="M14 0C21.732 0 28 6.26801 28 14C28 21.732 21.732 28 14 28C6.26801 28 0 21.732 0 14C0 6.26801 6.26801 0 14 0ZM22.3105 9.68945C21.7248 9.10367 20.7752 9.10367 20.1895 9.68945L12.25 17.6289L7.31055 12.6895L7.19629 12.5859C6.60714 12.1058 5.73848 12.1404 5.18945 12.6895C4.60367 13.2752 4.60367 14.2248 5.18945 14.8105L12.25 21.8711L22.3105 11.8105C22.8963 11.2248 22.8963 10.2752 22.3105 9.68945Z" fill="#CCD3E4"/>
</svg>
