<?xml version="1.0" encoding="UTF-8"?>
<svg id="Layer_2" data-name="Layer 2" xmlns="http://www.w3.org/2000/svg" viewBox="0 0 334.37 71.26">
  <defs>
    <style>
      .cls-1 {
        stroke-width: 0px;
      }
    </style>
  </defs>
  <g id="Layer_1-2" data-name="Layer 1">
    <g>
      <g>
        <path class="cls-1" d="m47.61,36.03h-20.21c-.91,0-1.66.72-1.66,1.6s.74,1.6,1.66,1.6h20.21c.91,0,1.66-.72,1.66-1.6s-.74-1.6-1.66-1.6Z"/>
        <path class="cls-1" d="m27.41,32.05c.91,0,1.66-.72,1.66-1.6s-.74-1.6-1.66-1.6-1.66.72-1.66,1.6.74,1.6,1.66,1.6Z"/>
        <path class="cls-1" d="m47.61,28.85h-14.22c-.91,0-1.66.72-1.66,1.6s.74,1.6,1.66,1.6h14.22c.91,0,1.66-.72,1.66-1.6s-.74-1.6-1.66-1.6Z"/>
        <path class="cls-1" d="m36.81,0C16.51,0,0,15.98,0,35.63s16.51,35.63,36.81,35.63,36.81-15.98,36.81-35.63S57.11,0,36.81,0Zm21.12,34.74c0,9.25-7.42,16.75-16.58,16.75h-9.84c-.51,0-1.01-.03-1.5-.08h0s-3.55.05-3.55.05c-1.86.02-3.66.71-5.06,1.94l-2.91,2.54c-.53.46-1.34.08-1.34-.62v-23.77c0-9.25,7.42-16.75,16.58-16.75h7.62c9.16,0,16.58,7.5,16.58,16.75v3.2Z"/>
      </g>
      <g>
        <g>
          <path class="cls-1" d="m106.76,69.82V1.44h48.83c10.39,0,15.59,4.14,15.59,12.43v17.66c0,8.29-5.2,12.43-15.59,12.43h-36.31v25.86h-12.52Zm12.52-36.67h35.23c2.76,0,4.14-1.11,4.14-3.33v-14.24c0-2.22-1.38-3.33-4.14-3.33h-35.23v20.9Z"/>
          <path class="cls-1" d="m174.88,69.82V29.01c0-7.75,4.83-11.62,14.51-11.62h17.57v10.45h-15.95c-2.4,0-3.6.96-3.6,2.88v39.1h-12.52Z"/>
          <path class="cls-1" d="m209.65,58.2v-29.19c0-7.75,4.83-11.62,14.51-11.62h23.79c9.67,0,14.51,3.87,14.51,11.62v19.91h-40.27v7.57c0,1.92,1.2,2.88,3.6,2.88h34.6v10.45h-36.22c-9.67,0-14.51-3.87-14.51-11.62Zm12.52-19.73h27.75v-7.75c0-1.92-1.23-2.88-3.69-2.88h-20.45c-2.4,0-3.6.96-3.6,2.88v7.75Z"/>
          <path class="cls-1" d="m266.05,69.82v-10.45h33.52c2.46,0,3.69-.96,3.69-2.88v-4.69c0-1.92-1.23-2.88-3.69-2.88h-19.01c-9.67,0-14.5-3.87-14.5-11.62v-8.29c0-7.75,4.83-11.62,14.5-11.62h31.08v10.45h-29.37c-2.4,0-3.6.96-3.6,2.88v4.77c0,1.98,1.2,2.97,3.6,2.97h19.01c9.67,0,14.51,3.84,14.51,11.53v8.2c0,7.75-4.84,11.62-14.51,11.62h-35.23Z"/>
        </g>
        <rect class="cls-1" x="323.9" y="60.94" width="10.47" height="8.85" rx="2.26" ry="2.26"/>
      </g>
    </g>
  </g>
</svg>