<svg width="102" height="102" viewBox="0 0 102 102" fill="none" xmlns="http://www.w3.org/2000/svg">
<path d="M62.7311 0H39.2718C17.6162 0 0 18.8551 0 42.0274V94.8731C0 97.5023 1.49339 99.8834 3.80162 100.938C4.62516 101.315 5.48929 101.506 6.37083 101.506C7.91642 101.506 9.41271 100.905 10.5842 99.8147L16.6506 94.168C18.7442 92.2201 21.412 91.1266 24.1581 91.0937C32.1035 90.9862 40.2171 91.0429 48.0611 91.0997L48.8991 91.1057C53.4315 91.1385 58.1204 91.1714 62.7282 91.1714C84.3809 91.1714 102 72.3163 102 49.144V42.0274C102.003 18.8521 84.3867 0 62.7311 0ZM92.683 42.0274V49.141C92.683 67.0222 79.2454 81.5691 62.7311 81.5691C58.0711 81.5691 53.3329 81.5362 48.7454 81.5033L48.0872 81.4974C40.2084 81.4406 32.0629 81.3838 24.0421 81.4914C19.0284 81.5571 14.1858 83.529 10.4073 87.0425L9.31701 88.0553V42.0274C9.31701 24.1463 22.7546 9.59935 39.2689 9.59935H62.7282C79.2483 9.59935 92.683 24.1463 92.683 42.0274Z" fill="#F2F3F7"/>
<path d="M26.0549 44.6561C28.7646 44.6561 30.9613 42.3929 30.9613 39.601C30.9613 36.8092 28.7646 34.5459 26.0549 34.5459C23.3451 34.5459 21.1484 36.8092 21.1484 39.601C21.1484 42.3929 23.3451 44.6561 26.0549 44.6561Z" fill="#F2F3F7"/>
<path d="M75.8086 34.5459H38.5666C35.8611 34.5459 33.6602 36.8135 33.6602 39.601C33.6602 42.3885 35.8611 44.6561 38.5666 44.6561H75.8086C78.5141 44.6561 80.715 42.3885 80.715 39.601C80.715 36.8135 78.5141 34.5459 75.8086 34.5459Z" fill="#F2F3F7"/>
<path d="M75.7978 50.5156H26.0549C23.3494 50.5156 21.1484 52.7833 21.1484 55.5707C21.1484 58.3582 23.3494 60.6259 26.0549 60.6259H75.7978C78.5033 60.6259 80.7043 58.3582 80.7043 55.5707C80.7043 52.7833 78.5033 50.5156 75.7978 50.5156Z" fill="#F2F3F7"/>
</svg>
