<?xml version="1.0" encoding="UTF-8"?>
<svg id="Layer_2" data-name="Layer 2" xmlns="http://www.w3.org/2000/svg" viewBox="0 0 211.99 69.35">
  <defs>
    <style>
      .cls-1 {
        stroke-width: 0px;
      }
    </style>
  </defs>
  <g id="Layer_1-2" data-name="Layer 1">
    <g>
      <path class="cls-1" d="m0,69.35V0h49.52c10.54,0,15.81,4.2,15.81,12.61v17.91c0,8.41-5.27,12.61-15.81,12.61H12.7v26.22H0Zm12.7-37.19h35.73c2.8,0,4.2-1.13,4.2-3.38v-14.44c0-2.25-1.4-3.38-4.2-3.38H12.7v21.2Z"/>
      <path class="cls-1" d="m69.08,69.35V27.96c0-7.86,4.9-11.79,14.71-11.79h17.82v10.6h-16.17c-2.44,0-3.65.97-3.65,2.92v39.66h-12.7Z"/>
      <path class="cls-1" d="m104.35,57.57v-29.61c0-7.86,4.9-11.79,14.71-11.79h24.12c9.81,0,14.71,3.93,14.71,11.79v20.19h-40.84v7.67c0,1.95,1.22,2.92,3.65,2.92h35.09v10.6h-36.73c-9.81,0-14.71-3.93-14.71-11.79Zm12.7-20.01h28.14v-7.86c0-1.95-1.25-2.92-3.75-2.92h-20.74c-2.44,0-3.65.97-3.65,2.92v7.86Z"/>
      <path class="cls-1" d="m161.55,69.35v-10.6h33.99c2.5,0,3.75-.97,3.75-2.92v-4.75c0-1.95-1.25-2.92-3.75-2.92h-19.28c-9.81,0-14.71-3.93-14.71-11.79v-8.41c0-7.86,4.9-11.79,14.71-11.79h31.52v10.6h-29.79c-2.44,0-3.66.97-3.66,2.92v4.84c0,2.01,1.22,3.02,3.66,3.02h19.28c9.81,0,14.71,3.9,14.71,11.7v8.32c0,7.86-4.9,11.79-14.71,11.79h-35.73Z"/>
    </g>
  </g>
</svg>