<svg width="492" height="262" viewBox="0 0 492 262" fill="none" xmlns="http://www.w3.org/2000/svg">
<g filter="url(#filter0_d_530_15342)">
<path d="M8 48C8 25.9086 25.9086 8 48 8H472C478.627 8 484 13.3726 484 20V242C484 248.627 478.627 254 472 254H20C13.3726 254 8 248.627 8 242V48Z" fill="url(#paint0_radial_530_15342)"/>
<path d="M8 48C8 25.9086 25.9086 8 48 8H472C478.627 8 484 13.3726 484 20V242C484 248.627 478.627 254 472 254H20C13.3726 254 8 248.627 8 242V48Z" fill="url(#paint1_linear_530_15342)" fill-opacity="0.15" style="mix-blend-mode:plus-lighter"/>
<path d="M48 9.5H472C477.799 9.5 482.5 14.201 482.5 20V242C482.5 247.799 477.799 252.5 472 252.5H20C14.201 252.5 9.5 247.799 9.5 242V48C9.5 26.737 26.737 9.5 48 9.5Z" stroke="#D7D5F5" stroke-width="3"/>
</g>
<rect x="8" y="54" width="9" height="36" fill="#D7D5F5"/>
<defs>
<filter id="filter0_d_530_15342" x="0" y="0" width="492" height="262" filterUnits="userSpaceOnUse" color-interpolation-filters="sRGB">
<feFlood flood-opacity="0" result="BackgroundImageFix"/>
<feColorMatrix in="SourceAlpha" type="matrix" values="0 0 0 0 0 0 0 0 0 0 0 0 0 0 0 0 0 0 127 0" result="hardAlpha"/>
<feOffset/>
<feGaussianBlur stdDeviation="4"/>
<feComposite in2="hardAlpha" operator="out"/>
<feColorMatrix type="matrix" values="0 0 0 0 0.556352 0 0 0 0 0.745703 0 0 0 0 0.798077 0 0 0 0.3 0"/>
<feBlend mode="normal" in2="BackgroundImageFix" result="effect1_dropShadow_530_15342"/>
<feBlend mode="normal" in="SourceGraphic" in2="effect1_dropShadow_530_15342" result="shape"/>
</filter>
<radialGradient id="paint0_radial_530_15342" cx="0" cy="0" r="1" gradientTransform="matrix(-317.912 224 -433.431 -815.317 446.215 51.5)" gradientUnits="userSpaceOnUse">
<stop stop-color="#EAE9FF"/>
<stop offset="1" stop-color="#D7D5F5"/>
</radialGradient>
<linearGradient id="paint1_linear_530_15342" x1="434.923" y1="43" x2="68.1482" y2="148.551" gradientUnits="userSpaceOnUse">
<stop stop-color="#BED5F9" stop-opacity="0"/>
<stop offset="1" stop-color="#BED5F9"/>
</linearGradient>
</defs>
</svg>
