<svg width="593" height="403" viewBox="0 0 593 403" fill="none" xmlns="http://www.w3.org/2000/svg">
<path d="M337.945 293.728C412.738 293.728 473.37 233.13 473.37 158.379C473.37 83.6273 412.738 23.0293 337.945 23.0293C263.151 23.0293 202.52 83.6273 202.52 158.379C202.52 233.13 263.151 293.728 337.945 293.728Z" fill="url(#paint0_linear_3388_12434)"/>
<path d="M417.129 310.899H166.29C161.193 310.899 156.82 307.282 155.865 302.282L122.051 124.72C120.803 118.189 125.816 112.141 132.476 112.141L371.809 115.768C376.434 115.768 380.514 118.755 381.92 123.158L427.24 297.093C429.411 303.928 424.303 310.909 417.129 310.909V310.899Z" fill="url(#paint1_linear_3388_12434)"/>
<path d="M397.6 293.728H180.964C176.517 293.728 172.699 290.657 171.871 286.422L140.993 136.323C139.913 130.778 144.276 125.652 150.086 125.652L360.188 129.279C364.216 129.279 367.792 131.816 369.009 135.548L406.431 282.019C408.33 287.816 403.872 293.728 397.61 293.728H397.6Z" fill="white"/>
<path d="M478.926 305.322H179.003C174.27 305.322 170.434 309.157 170.434 313.886C170.434 318.616 174.27 322.451 179.003 322.451H478.926C483.659 322.451 487.495 318.616 487.495 313.886C487.495 309.157 483.659 305.322 478.926 305.322Z" fill="#4B5F77"/>
<path d="M235.388 168.882C237.404 168.882 239.038 167.249 239.038 165.234C239.038 163.219 237.404 161.586 235.388 161.586C233.372 161.586 231.738 163.219 231.738 165.234C231.738 167.249 233.372 168.882 235.388 168.882Z" fill="#C9CDD5"/>
<path d="M253.271 168.882C255.287 168.882 256.921 167.249 256.921 165.234C256.921 163.219 255.287 161.586 253.271 161.586C251.255 161.586 249.621 163.219 249.621 165.234C249.621 167.249 251.255 168.882 253.271 168.882Z" fill="#C9CDD5"/>
<path d="M271.166 168.882C273.181 168.882 274.815 167.249 274.815 165.234C274.815 163.219 273.181 161.586 271.166 161.586C269.15 161.586 267.516 163.219 267.516 165.234C267.516 167.249 269.15 168.882 271.166 168.882Z" fill="#C9CDD5"/>
<path d="M235.388 187.1C237.404 187.1 239.038 185.467 239.038 183.453C239.038 181.438 237.404 179.805 235.388 179.805C233.372 179.805 231.738 181.438 231.738 183.453C231.738 185.467 233.372 187.1 235.388 187.1Z" fill="#C9CDD5"/>
<path d="M253.271 187.1C255.287 187.1 256.921 185.467 256.921 183.453C256.921 181.438 255.287 179.805 253.271 179.805C251.255 179.805 249.621 181.438 249.621 183.453C249.621 185.467 251.255 187.1 253.271 187.1Z" fill="#C9CDD5"/>
<path d="M271.166 187.1C273.181 187.1 274.815 185.467 274.815 183.453C274.815 181.438 273.181 179.805 271.166 179.805C269.15 179.805 267.516 181.438 267.516 183.453C267.516 185.467 269.15 187.1 271.166 187.1Z" fill="#C9CDD5"/>
<path d="M235.388 205.329C237.404 205.329 239.038 203.696 239.038 201.681C239.038 199.666 237.404 198.033 235.388 198.033C233.372 198.033 231.738 199.666 231.738 201.681C231.738 203.696 233.372 205.329 235.388 205.329Z" fill="#C9CDD5"/>
<path d="M253.271 205.329C255.287 205.329 256.921 203.696 256.921 201.681C256.921 199.666 255.287 198.033 253.271 198.033C251.255 198.033 249.621 199.666 249.621 201.681C249.621 203.696 251.255 205.329 253.271 205.329Z" fill="#C9CDD5"/>
<path d="M271.166 205.329C273.181 205.329 274.815 203.696 274.815 201.681C274.815 199.666 273.181 198.033 271.166 198.033C269.15 198.033 267.516 199.666 267.516 201.681C267.516 203.696 269.15 205.329 271.166 205.329Z" fill="#C9CDD5"/>
<g filter="url(#filter0_d_3388_12434)">
<path d="M459.544 8.5H415.179C375.732 8.5 343.648 41.8552 343.648 82.8626V179.815C343.648 183.557 345.83 186.943 349.207 188.442C350.424 188.987 351.693 189.249 352.952 189.249C355.165 189.249 357.336 188.431 359.087 186.849L370.561 176.492C375.019 172.467 380.704 170.213 386.567 170.14C401.785 169.94 417.308 170.056 432.327 170.161C441.399 170.223 450.482 170.286 459.555 170.286C499.001 170.286 531.085 136.931 531.085 95.9237V82.8731C531.085 41.8657 499.001 8.51048 459.555 8.51048L459.544 8.5Z" fill="url(#paint2_linear_3388_12434)"/>
<path d="M391.883 68.0605H391.872C387.76 68.0605 384.426 71.3927 384.426 75.5031V75.5136C384.426 79.624 387.76 82.9561 391.872 82.9561H391.883C395.996 82.9561 399.33 79.624 399.33 75.5136V75.5031C399.33 71.3927 395.996 68.0605 391.883 68.0605Z" fill="white"/>
<path d="M482.838 68.0605H418.818C414.705 68.0605 411.371 71.3927 411.371 75.5031V75.5136C411.371 79.624 414.705 82.9561 418.818 82.9561H482.838C486.951 82.9561 490.285 79.624 490.285 75.5136V75.5031C490.285 71.3927 486.951 68.0605 482.838 68.0605Z" fill="white"/>
<path d="M482.848 101.469H391.872C387.76 101.469 384.426 104.801 384.426 108.911V108.922C384.426 113.032 387.76 116.364 391.872 116.364H482.848C486.961 116.364 490.295 113.032 490.295 108.922V108.911C490.295 104.801 486.961 101.469 482.848 101.469Z" fill="white"/>
</g>
<path d="M62.2259 103.073C78.5956 103.073 91.8658 89.8102 91.8658 73.4496C91.8658 57.089 78.5956 43.8262 62.2259 43.8262C45.8562 43.8262 32.5859 57.089 32.5859 73.4496C32.5859 89.8102 45.8562 103.073 62.2259 103.073Z" fill="#F2F7FB"/>
<path d="M592.051 217.5L554.703 255.876L522 237.542L592.051 217.5Z" fill="#BED5F9"/>
<path d="M554.702 255.876L550.664 285.804L592.051 217.5L554.702 255.876Z" fill="#4B5F77"/>
<mask id="mask0_3388_12434" style="mask-type:luminance" maskUnits="userSpaceOnUse" x="0" y="242" width="179" height="161">
<path d="M178.563 242.637H0V402.264H178.563V242.637Z" fill="white"/>
</mask>
<g mask="url(#mask0_3388_12434)">
<path d="M1.70034 246.022C2.6338 246.022 3.38895 245.267 3.38895 244.334C3.38895 243.401 2.6338 242.646 1.70034 242.646C0.766877 242.646 0.0117188 243.401 0.0117188 244.334C0.0117188 245.267 0.766877 246.022 1.70034 246.022Z" fill="#C9CDD5"/>
<path d="M30.8996 246.022C31.833 246.022 32.5882 245.267 32.5882 244.334C32.5882 243.401 31.833 242.646 30.8996 242.646C29.9661 242.646 29.2109 243.401 29.2109 244.334C29.2109 245.267 29.9661 246.022 30.8996 246.022Z" fill="#C9CDD5"/>
<path d="M60.0871 246.022C61.0205 246.022 61.7757 245.267 61.7757 244.334C61.7757 243.401 61.0205 242.646 60.0871 242.646C59.1536 242.646 58.3984 243.401 58.3984 244.334C58.3984 245.267 59.1536 246.022 60.0871 246.022Z" fill="#C9CDD5"/>
<path d="M89.2785 246.022C90.2119 246.022 90.9671 245.267 90.9671 244.334C90.9671 243.401 90.2119 242.646 89.2785 242.646C88.345 242.646 87.5898 243.401 87.5898 244.334C87.5898 245.267 88.345 246.022 89.2785 246.022Z" fill="#C9CDD5"/>
<path d="M118.489 246.022C119.423 246.022 120.178 245.267 120.178 244.334C120.178 243.401 119.423 242.646 118.489 242.646C117.556 242.646 116.801 243.401 116.801 244.334C116.801 245.267 117.556 246.022 118.489 246.022Z" fill="#C9CDD5"/>
<path d="M147.677 246.022C148.61 246.022 149.366 245.267 149.366 244.334C149.366 243.401 148.61 242.646 147.677 242.646C146.743 242.646 145.988 243.401 145.988 244.334C145.988 245.267 146.743 246.022 147.677 246.022Z" fill="#C9CDD5"/>
<path d="M176.876 246.022C177.81 246.022 178.565 245.267 178.565 244.334C178.565 243.401 177.81 242.646 176.876 242.646C175.943 242.646 175.188 243.401 175.188 244.334C175.188 245.267 175.943 246.022 176.876 246.022Z" fill="#C9CDD5"/>
<path d="M1.70034 272.071C2.6338 272.071 3.38895 271.316 3.38895 270.383C3.38895 269.45 2.6338 268.695 1.70034 268.695C0.766877 268.695 0.0117188 269.45 0.0117188 270.383C0.0117188 271.316 0.766877 272.071 1.70034 272.071Z" fill="#C9CDD5"/>
<path d="M30.8996 272.071C31.833 272.071 32.5882 271.316 32.5882 270.383C32.5882 269.45 31.833 268.695 30.8996 268.695C29.9661 268.695 29.2109 269.45 29.2109 270.383C29.2109 271.316 29.9661 272.071 30.8996 272.071Z" fill="#C9CDD5"/>
<path d="M60.0871 272.071C61.0205 272.071 61.7757 271.316 61.7757 270.383C61.7757 269.45 61.0205 268.695 60.0871 268.695C59.1536 268.695 58.3984 269.45 58.3984 270.383C58.3984 271.316 59.1536 272.071 60.0871 272.071Z" fill="#C9CDD5"/>
<path d="M89.2785 272.071C90.2119 272.071 90.9671 271.316 90.9671 270.383C90.9671 269.45 90.2119 268.695 89.2785 268.695C88.345 268.695 87.5898 269.45 87.5898 270.383C87.5898 271.316 88.345 272.071 89.2785 272.071Z" fill="#C9CDD5"/>
<path d="M118.489 272.071C119.423 272.071 120.178 271.316 120.178 270.383C120.178 269.45 119.423 268.695 118.489 268.695C117.556 268.695 116.801 269.45 116.801 270.383C116.801 271.316 117.556 272.071 118.489 272.071Z" fill="#C9CDD5"/>
<path d="M147.677 272.071C148.61 272.071 149.366 271.316 149.366 270.383C149.366 269.45 148.61 268.695 147.677 268.695C146.743 268.695 145.988 269.45 145.988 270.383C145.988 271.316 146.743 272.071 147.677 272.071Z" fill="#C9CDD5"/>
<path d="M176.876 272.071C177.81 272.071 178.565 271.316 178.565 270.383C178.565 269.45 177.81 268.695 176.876 268.695C175.943 268.695 175.188 269.45 175.188 270.383C175.188 271.316 175.943 272.071 176.876 272.071Z" fill="#C9CDD5"/>
<path d="M1.70034 298.099C2.6338 298.099 3.38895 297.344 3.38895 296.411C3.38895 295.478 2.6338 294.724 1.70034 294.724C0.766877 294.724 0.0117188 295.478 0.0117188 296.411C0.0117188 297.344 0.766877 298.099 1.70034 298.099Z" fill="#C9CDD5"/>
<path d="M30.8996 298.099C31.833 298.099 32.5882 297.344 32.5882 296.411C32.5882 295.478 31.833 294.724 30.8996 294.724C29.9661 294.724 29.2109 295.478 29.2109 296.411C29.2109 297.344 29.9661 298.099 30.8996 298.099Z" fill="#C9CDD5"/>
<path d="M60.0871 298.099C61.0205 298.099 61.7757 297.344 61.7757 296.411C61.7757 295.478 61.0205 294.724 60.0871 294.724C59.1536 294.724 58.3984 295.478 58.3984 296.411C58.3984 297.344 59.1536 298.099 60.0871 298.099Z" fill="#C9CDD5"/>
<path d="M89.2785 298.099C90.2119 298.099 90.9671 297.344 90.9671 296.411C90.9671 295.478 90.2119 294.724 89.2785 294.724C88.345 294.724 87.5898 295.478 87.5898 296.411C87.5898 297.344 88.345 298.099 89.2785 298.099Z" fill="#C9CDD5"/>
<path d="M118.489 298.099C119.423 298.099 120.178 297.344 120.178 296.411C120.178 295.478 119.423 294.724 118.489 294.724C117.556 294.724 116.801 295.478 116.801 296.411C116.801 297.344 117.556 298.099 118.489 298.099Z" fill="#C9CDD5"/>
<path d="M147.677 298.099C148.61 298.099 149.366 297.344 149.366 296.411C149.366 295.478 148.61 294.724 147.677 294.724C146.743 294.724 145.988 295.478 145.988 296.411C145.988 297.344 146.743 298.099 147.677 298.099Z" fill="#C9CDD5"/>
<path d="M176.876 298.099C177.81 298.099 178.565 297.344 178.565 296.411C178.565 295.478 177.81 294.724 176.876 294.724C175.943 294.724 175.188 295.478 175.188 296.411C175.188 297.344 175.943 298.099 176.876 298.099Z" fill="#C9CDD5"/>
<path d="M1.70034 324.148C2.6338 324.148 3.38895 323.393 3.38895 322.46C3.38895 321.527 2.6338 320.772 1.70034 320.772C0.766877 320.772 0.0117188 321.527 0.0117188 322.46C0.0117188 323.393 0.766877 324.148 1.70034 324.148Z" fill="#C9CDD5"/>
<path d="M30.8996 324.148C31.833 324.148 32.5882 323.393 32.5882 322.46C32.5882 321.527 31.833 320.772 30.8996 320.772C29.9661 320.772 29.2109 321.527 29.2109 322.46C29.2109 323.393 29.9661 324.148 30.8996 324.148Z" fill="#C9CDD5"/>
<path d="M60.0871 324.148C61.0205 324.148 61.7757 323.393 61.7757 322.46C61.7757 321.527 61.0205 320.772 60.0871 320.772C59.1536 320.772 58.3984 321.527 58.3984 322.46C58.3984 323.393 59.1536 324.148 60.0871 324.148Z" fill="#C9CDD5"/>
<path d="M89.2785 324.148C90.2119 324.148 90.9671 323.393 90.9671 322.46C90.9671 321.527 90.2119 320.772 89.2785 320.772C88.345 320.772 87.5898 321.527 87.5898 322.46C87.5898 323.393 88.345 324.148 89.2785 324.148Z" fill="#C9CDD5"/>
<path d="M118.489 324.148C119.423 324.148 120.178 323.393 120.178 322.46C120.178 321.527 119.423 320.772 118.489 320.772C117.556 320.772 116.801 321.527 116.801 322.46C116.801 323.393 117.556 324.148 118.489 324.148Z" fill="#C9CDD5"/>
<path d="M147.677 324.148C148.61 324.148 149.366 323.393 149.366 322.46C149.366 321.527 148.61 320.772 147.677 320.772C146.743 320.772 145.988 321.527 145.988 322.46C145.988 323.393 146.743 324.148 147.677 324.148Z" fill="#C9CDD5"/>
<path d="M176.876 324.148C177.81 324.148 178.565 323.393 178.565 322.46C178.565 321.527 177.81 320.772 176.876 320.772C175.943 320.772 175.188 321.527 175.188 322.46C175.188 323.393 175.943 324.148 176.876 324.148Z" fill="#C9CDD5"/>
<path d="M1.70034 350.187C2.6338 350.187 3.38895 349.432 3.38895 348.499C3.38895 347.566 2.6338 346.812 1.70034 346.812C0.766877 346.812 0.0117188 347.566 0.0117188 348.499C0.0117188 349.432 0.766877 350.187 1.70034 350.187Z" fill="#C9CDD5"/>
<path d="M30.8996 350.187C31.833 350.187 32.5882 349.432 32.5882 348.499C32.5882 347.566 31.833 346.812 30.8996 346.812C29.9661 346.812 29.2109 347.566 29.2109 348.499C29.2109 349.432 29.9661 350.187 30.8996 350.187Z" fill="#C9CDD5"/>
<path d="M60.0871 350.187C61.0205 350.187 61.7757 349.432 61.7757 348.499C61.7757 347.566 61.0205 346.812 60.0871 346.812C59.1536 346.812 58.3984 347.566 58.3984 348.499C58.3984 349.432 59.1536 350.187 60.0871 350.187Z" fill="#C9CDD5"/>
<path d="M89.2785 350.187C90.2119 350.187 90.9671 349.432 90.9671 348.499C90.9671 347.566 90.2119 346.812 89.2785 346.812C88.345 346.812 87.5898 347.566 87.5898 348.499C87.5898 349.432 88.345 350.187 89.2785 350.187Z" fill="#C9CDD5"/>
<path d="M118.489 350.187C119.423 350.187 120.178 349.432 120.178 348.499C120.178 347.566 119.423 346.812 118.489 346.812C117.556 346.812 116.801 347.566 116.801 348.499C116.801 349.432 117.556 350.187 118.489 350.187Z" fill="#C9CDD5"/>
<path d="M147.677 350.187C148.61 350.187 149.366 349.432 149.366 348.499C149.366 347.566 148.61 346.812 147.677 346.812C146.743 346.812 145.988 347.566 145.988 348.499C145.988 349.432 146.743 350.187 147.677 350.187Z" fill="#C9CDD5"/>
<path d="M176.876 350.187C177.81 350.187 178.565 349.432 178.565 348.499C178.565 347.566 177.81 346.812 176.876 346.812C175.943 346.812 175.188 347.566 175.188 348.499C175.188 349.432 175.943 350.187 176.876 350.187Z" fill="#C9CDD5"/>
<path d="M1.70034 376.225C2.6338 376.225 3.38895 375.47 3.38895 374.537C3.38895 373.604 2.6338 372.85 1.70034 372.85C0.766877 372.85 0.0117188 373.604 0.0117188 374.537C0.0117188 375.47 0.766877 376.225 1.70034 376.225Z" fill="#C9CDD5"/>
<path d="M30.8996 376.225C31.833 376.225 32.5882 375.47 32.5882 374.537C32.5882 373.604 31.833 372.85 30.8996 372.85C29.9661 372.85 29.2109 373.604 29.2109 374.537C29.2109 375.47 29.9661 376.225 30.8996 376.225Z" fill="#C9CDD5"/>
<path d="M60.0871 376.225C61.0205 376.225 61.7757 375.47 61.7757 374.537C61.7757 373.604 61.0205 372.85 60.0871 372.85C59.1536 372.85 58.3984 373.604 58.3984 374.537C58.3984 375.47 59.1536 376.225 60.0871 376.225Z" fill="#C9CDD5"/>
<path d="M89.2785 376.225C90.2119 376.225 90.9671 375.47 90.9671 374.537C90.9671 373.604 90.2119 372.85 89.2785 372.85C88.345 372.85 87.5898 373.604 87.5898 374.537C87.5898 375.47 88.345 376.225 89.2785 376.225Z" fill="#C9CDD5"/>
<path d="M118.489 376.225C119.423 376.225 120.178 375.47 120.178 374.537C120.178 373.604 119.423 372.85 118.489 372.85C117.556 372.85 116.801 373.604 116.801 374.537C116.801 375.47 117.556 376.225 118.489 376.225Z" fill="#C9CDD5"/>
<path d="M147.677 376.225C148.61 376.225 149.366 375.47 149.366 374.537C149.366 373.604 148.61 372.85 147.677 372.85C146.743 372.85 145.988 373.604 145.988 374.537C145.988 375.47 146.743 376.225 147.677 376.225Z" fill="#C9CDD5"/>
<path d="M176.876 376.225C177.81 376.225 178.565 375.47 178.565 374.537C178.565 373.604 177.81 372.85 176.876 372.85C175.943 372.85 175.188 373.604 175.188 374.537C175.188 375.47 175.943 376.225 176.876 376.225Z" fill="#C9CDD5"/>
<path d="M1.70034 402.263C2.6338 402.263 3.38895 401.508 3.38895 400.575C3.38895 399.642 2.6338 398.888 1.70034 398.888C0.766877 398.888 0.0117188 399.642 0.0117188 400.575C0.0117188 401.508 0.766877 402.263 1.70034 402.263Z" fill="#C9CDD5"/>
<path d="M30.8996 402.263C31.833 402.263 32.5882 401.508 32.5882 400.575C32.5882 399.642 31.833 398.888 30.8996 398.888C29.9661 398.888 29.2109 399.642 29.2109 400.575C29.2109 401.508 29.9661 402.263 30.8996 402.263Z" fill="#C9CDD5"/>
<path d="M60.0871 402.263C61.0205 402.263 61.7757 401.508 61.7757 400.575C61.7757 399.642 61.0205 398.888 60.0871 398.888C59.1536 398.888 58.3984 399.642 58.3984 400.575C58.3984 401.508 59.1536 402.263 60.0871 402.263Z" fill="#C9CDD5"/>
<path d="M89.2785 402.263C90.2119 402.263 90.9671 401.508 90.9671 400.575C90.9671 399.642 90.2119 398.888 89.2785 398.888C88.345 398.888 87.5898 399.642 87.5898 400.575C87.5898 401.508 88.345 402.263 89.2785 402.263Z" fill="#C9CDD5"/>
<path d="M118.489 402.263C119.423 402.263 120.178 401.508 120.178 400.575C120.178 399.642 119.423 398.888 118.489 398.888C117.556 398.888 116.801 399.642 116.801 400.575C116.801 401.508 117.556 402.263 118.489 402.263Z" fill="#C9CDD5"/>
<path d="M147.677 402.263C148.61 402.263 149.366 401.508 149.366 400.575C149.366 399.642 148.61 398.888 147.677 398.888C146.743 398.888 145.988 399.642 145.988 400.575C145.988 401.508 146.743 402.263 147.677 402.263Z" fill="#C9CDD5"/>
<path d="M176.876 402.263C177.81 402.263 178.565 401.508 178.565 400.575C178.565 399.642 177.81 398.888 176.876 398.888C175.943 398.888 175.188 399.642 175.188 400.575C175.188 401.508 175.943 402.263 176.876 402.263Z" fill="#C9CDD5"/>
</g>
<defs>
<filter id="filter0_d_3388_12434" x="320.978" y="0" width="221.438" height="214.749" filterUnits="userSpaceOnUse" color-interpolation-filters="sRGB">
<feFlood flood-opacity="0" result="BackgroundImageFix"/>
<feColorMatrix in="SourceAlpha" type="matrix" values="0 0 0 0 0 0 0 0 0 0 0 0 0 0 0 0 0 0 127 0" result="hardAlpha"/>
<feOffset dx="-5.67" dy="8.5"/>
<feGaussianBlur stdDeviation="8.5"/>
<feColorMatrix type="matrix" values="0 0 0 0 0.219608 0 0 0 0 0.298039 0 0 0 0 0.317647 0 0 0 0.15 0"/>
<feBlend mode="normal" in2="BackgroundImageFix" result="effect1_dropShadow_3388_12434"/>
<feBlend mode="normal" in="SourceGraphic" in2="effect1_dropShadow_3388_12434" result="shape"/>
</filter>
<linearGradient id="paint0_linear_3388_12434" x1="202.52" y1="158.379" x2="473.37" y2="158.379" gradientUnits="userSpaceOnUse">
<stop stop-color="#DDE9F6"/>
<stop offset="1" stop-color="#DCF0F5"/>
</linearGradient>
<linearGradient id="paint1_linear_3388_12434" x1="176.391" y1="79.4773" x2="363.602" y2="350.211" gradientUnits="userSpaceOnUse">
<stop stop-color="#C2F5DF"/>
<stop offset="1" stop-color="#8BB0DD"/>
</linearGradient>
<linearGradient id="paint2_linear_3388_12434" x1="437.361" y1="6.34061" x2="437.361" y2="188.107" gradientUnits="userSpaceOnUse">
<stop stop-color="#77C2C8"/>
<stop offset="1" stop-color="#4B5F77"/>
</linearGradient>
</defs>
</svg>
