<svg width="441" height="418" viewBox="0 0 441 418" fill="none" xmlns="http://www.w3.org/2000/svg">
<path d="M270.091 365.1H108.981C92.7611 365.1 79.6211 351.95 79.6211 335.74V120.42C79.6211 104.2 92.7711 91.0596 108.981 91.0596H247.701C256.811 91.0596 259.431 91.6296 267.361 99.5496L291.861 124.86C296.741 130.04 299.451 136.89 299.451 144V335.74C299.451 351.96 286.301 365.1 270.091 365.1Z" fill="url(#paint0_linear_3388_12433)"/>
<path d="M227.491 139.91H129.111C124.599 139.91 120.941 143.568 120.941 148.08C120.941 152.592 124.599 156.25 129.111 156.25H227.491C232.004 156.25 235.661 152.592 235.661 148.08C235.661 143.568 232.004 139.91 227.491 139.91Z" fill="white"/>
<path d="M253.711 177.359H129.111C124.599 177.359 120.941 181.017 120.941 185.529C120.941 190.042 124.599 193.699 129.111 193.699H253.711C258.224 193.699 261.881 190.042 261.881 185.529C261.881 181.017 258.224 177.359 253.711 177.359Z" fill="white"/>
<path d="M224.091 214.81H129.111C124.599 214.81 120.941 218.467 120.941 222.98C120.941 227.492 124.599 231.15 129.111 231.15H224.091C228.604 231.15 232.261 227.492 232.261 222.98C232.261 218.467 228.604 214.81 224.091 214.81Z" fill="white"/>
<path d="M181.371 252.25H129.111C124.599 252.25 120.941 255.908 120.941 260.42C120.941 264.932 124.599 268.59 129.111 268.59H181.371C185.884 268.59 189.541 264.932 189.541 260.42C189.541 255.908 185.884 252.25 181.371 252.25Z" fill="white"/>
<path d="M37.5406 86.2795C54.7443 86.2795 68.6906 72.3332 68.6906 55.1295C68.6906 37.9258 54.7443 23.9795 37.5406 23.9795C20.3369 23.9795 6.39062 37.9258 6.39062 55.1295C6.39062 72.3332 20.3369 86.2795 37.5406 86.2795Z" fill="url(#paint1_linear_3388_12433)"/>
<path d="M379.379 303.6C385.178 303.6 389.879 298.899 389.879 293.1C389.879 287.301 385.178 282.6 379.379 282.6C373.58 282.6 368.879 287.301 368.879 293.1C368.879 298.899 373.58 303.6 379.379 303.6Z" fill="#4F5E75"/>
<g filter="url(#filter0_d_3388_12433)">
<path d="M215.492 256.95L191.142 314.36C189.222 318.71 193.622 323.16 197.992 321.29L255.622 297.32L215.492 256.95Z" fill="#4B5F77"/>
<path d="M326.827 146.293L215.504 256.958L255.64 297.333L366.963 186.668L326.827 146.293Z" fill="#D7D5F5"/>
<path d="M345.202 164.785L233.879 275.45L255.628 297.329L366.952 186.664L345.202 164.785Z" fill="#5D8DAA"/>
<path d="M386.864 166.87C380.684 173.05 366.954 186.65 366.954 186.65L326.824 146.28C326.824 146.28 339.294 133.94 346.734 126.5C354.174 119.06 366.474 119.34 371.684 124.55C376.894 129.76 381.894 134.86 388.944 141.91C395.994 148.96 393.044 160.68 386.864 166.87Z" fill="#4B5F77"/>
</g>
<path d="M429.399 188.76L366.949 226.81L400.879 248.93L429.399 188.76Z" fill="#D7D5F5"/>
<path d="M21.9487 251.44C23.8707 251.44 25.4287 249.881 25.4287 247.96C25.4287 246.038 23.8707 244.479 21.9487 244.479C20.0268 244.479 18.4688 246.038 18.4688 247.96C18.4688 249.881 20.0268 251.44 21.9487 251.44Z" fill="#F5F7F9"/>
<path d="M39.0073 251.44C40.9293 251.44 42.4874 249.881 42.4874 247.96C42.4874 246.038 40.9293 244.479 39.0073 244.479C37.0854 244.479 35.5273 246.038 35.5273 247.96C35.5273 249.881 37.0854 251.44 39.0073 251.44Z" fill="#F5F7F9"/>
<path d="M56.0581 251.44C57.9801 251.44 59.5381 249.881 59.5381 247.96C59.5381 246.038 57.9801 244.479 56.0581 244.479C54.1362 244.479 52.5781 246.038 52.5781 247.96C52.5781 249.881 54.1362 251.44 56.0581 251.44Z" fill="#F5F7F9"/>
<path d="M21.9487 268.83C23.8707 268.83 25.4287 267.272 25.4287 265.35C25.4287 263.428 23.8707 261.87 21.9487 261.87C20.0268 261.87 18.4688 263.428 18.4688 265.35C18.4688 267.272 20.0268 268.83 21.9487 268.83Z" fill="#F5F7F9"/>
<path d="M39.0073 268.83C40.9293 268.83 42.4874 267.272 42.4874 265.35C42.4874 263.428 40.9293 261.87 39.0073 261.87C37.0854 261.87 35.5273 263.428 35.5273 265.35C35.5273 267.272 37.0854 268.83 39.0073 268.83Z" fill="#F5F7F9"/>
<path d="M56.0581 268.83C57.9801 268.83 59.5381 267.272 59.5381 265.35C59.5381 263.428 57.9801 261.87 56.0581 261.87C54.1362 261.87 52.5781 263.428 52.5781 265.35C52.5781 267.272 54.1362 268.83 56.0581 268.83Z" fill="#F5F7F9"/>
<path d="M21.9487 286.21C23.8707 286.21 25.4287 284.652 25.4287 282.73C25.4287 280.808 23.8707 279.25 21.9487 279.25C20.0268 279.25 18.4688 280.808 18.4688 282.73C18.4688 284.652 20.0268 286.21 21.9487 286.21Z" fill="#F5F7F9"/>
<path d="M39.0073 286.21C40.9293 286.21 42.4874 284.652 42.4874 282.73C42.4874 280.808 40.9293 279.25 39.0073 279.25C37.0854 279.25 35.5273 280.808 35.5273 282.73C35.5273 284.652 37.0854 286.21 39.0073 286.21Z" fill="#F5F7F9"/>
<path d="M56.0581 286.21C57.9801 286.21 59.5381 284.652 59.5381 282.73C59.5381 280.808 57.9801 279.25 56.0581 279.25C54.1362 279.25 52.5781 280.808 52.5781 282.73C52.5781 284.652 54.1362 286.21 56.0581 286.21Z" fill="#F5F7F9"/>
<path d="M21.9487 303.6C23.8707 303.6 25.4287 302.042 25.4287 300.12C25.4287 298.198 23.8707 296.64 21.9487 296.64C20.0268 296.64 18.4688 298.198 18.4688 300.12C18.4688 302.042 20.0268 303.6 21.9487 303.6Z" fill="#F5F7F9"/>
<path d="M39.0073 303.6C40.9293 303.6 42.4874 302.042 42.4874 300.12C42.4874 298.198 40.9293 296.64 39.0073 296.64C37.0854 296.64 35.5273 298.198 35.5273 300.12C35.5273 302.042 37.0854 303.6 39.0073 303.6Z" fill="#F5F7F9"/>
<path d="M56.0581 303.6C57.9801 303.6 59.5381 302.042 59.5381 300.12C59.5381 298.198 57.9801 296.64 56.0581 296.64C54.1362 296.64 52.5781 298.198 52.5781 300.12C52.5781 302.042 54.1362 303.6 56.0581 303.6Z" fill="#F5F7F9"/>
<path d="M306.109 110.26L345.019 0H368.849L407.759 110.26H384.199L376.389 85.62H337.479L329.669 110.26H306.109ZM342.999 67.58H370.729L363.729 44.29C360.949 34.96 358.789 27.46 357.269 21.81H356.459C354.389 29.62 352.289 37.11 350.129 44.29L342.989 67.58H342.999Z" fill="url(#paint2_linear_3388_12433)"/>
<path d="M417.848 110.26V0H440.198V110.26H417.848Z" fill="url(#paint3_linear_3388_12433)"/>
<path d="M268.719 325.94L307.139 303.6L350.799 327.6L310.589 350.45L268.719 325.94Z" fill="#F2F7FB"/>
<path d="M268.719 325.939V378.279L310.459 402.659L310.589 350.449L268.719 325.939Z" fill="url(#paint4_linear_3388_12433)"/>
<path d="M350.797 327.6V378.4L310.457 402.66L310.587 350.45L350.797 327.6Z" fill="#4B5F77"/>
<path d="M52.58 417.69C23.59 417.69 0 394.1 0 365.11C0 336.12 23.59 312.53 52.58 312.53C81.57 312.53 105.16 336.12 105.16 365.11C105.16 394.1 81.57 417.69 52.58 417.69ZM52.58 339.42C38.41 339.42 26.89 350.95 26.89 365.11C26.89 379.27 38.42 390.8 52.58 390.8C66.74 390.8 78.27 379.27 78.27 365.11C78.27 350.95 66.74 339.42 52.58 339.42Z" fill="#5E8DAA"/>
<defs>
<filter id="filter0_d_3388_12433" x="173.68" y="112.261" width="236.359" height="234.968" filterUnits="userSpaceOnUse" color-interpolation-filters="sRGB">
<feFlood flood-opacity="0" result="BackgroundImageFix"/>
<feColorMatrix in="SourceAlpha" type="matrix" values="0 0 0 0 0 0 0 0 0 0 0 0 0 0 0 0 0 0 127 0" result="hardAlpha"/>
<feOffset dy="8.5"/>
<feGaussianBlur stdDeviation="8.5"/>
<feColorMatrix type="matrix" values="0 0 0 0 0.219608 0 0 0 0 0.298039 0 0 0 0 0.317647 0 0 0 0.3 0"/>
<feBlend mode="normal" in2="BackgroundImageFix" result="effect1_dropShadow_3388_12433"/>
<feBlend mode="normal" in="SourceGraphic" in2="effect1_dropShadow_3388_12433" result="shape"/>
</filter>
<linearGradient id="paint0_linear_3388_12433" x1="79.8911" y1="94.9896" x2="288.231" y2="370.74" gradientUnits="userSpaceOnUse">
<stop stop-color="#C2F5DF"/>
<stop offset="1" stop-color="#8BB0DD"/>
</linearGradient>
<linearGradient id="paint1_linear_3388_12433" x1="65.9006" y1="31.6495" x2="16.8806" y2="72.2395" gradientUnits="userSpaceOnUse">
<stop stop-color="#DDE9F6"/>
<stop offset="1" stop-color="#DCF0F5"/>
</linearGradient>
<linearGradient id="paint2_linear_3388_12433" x1="356.929" y1="-2.22" x2="356.929" y2="108.44" gradientUnits="userSpaceOnUse">
<stop stop-color="#77C2C8"/>
<stop offset="1" stop-color="#4B5F77"/>
</linearGradient>
<linearGradient id="paint3_linear_3388_12433" x1="429.028" y1="-2.22" x2="429.028" y2="108.44" gradientUnits="userSpaceOnUse">
<stop stop-color="#77C2C8"/>
<stop offset="1" stop-color="#4B5F77"/>
</linearGradient>
<linearGradient id="paint4_linear_3388_12433" x1="265.789" y1="334.969" x2="318.639" y2="400.069" gradientUnits="userSpaceOnUse">
<stop stop-color="#C2F5DF"/>
<stop offset="1" stop-color="#8BB0DD"/>
</linearGradient>
</defs>
</svg>
