<svg width="562" height="440" viewBox="0 0 562 440" fill="none" xmlns="http://www.w3.org/2000/svg">
<path d="M351.609 358.015C348.58 358.015 346.121 355.558 346.121 352.53V252.224C346.121 249.196 348.58 246.739 351.609 246.739C354.638 246.739 357.096 249.196 357.096 252.224V352.53C357.096 355.558 354.638 358.015 351.609 358.015Z" fill="#4B5F77"/>
<path d="M306.872 368.096C305.435 368.096 304.008 367.537 302.932 366.429C300.825 364.257 300.88 360.779 303.053 358.673L347.799 315.354C349.972 313.248 353.452 313.303 355.559 315.475C357.666 317.647 357.611 321.124 355.438 323.23L310.692 366.549C309.627 367.581 308.255 368.096 306.872 368.096Z" fill="#4B5F77"/>
<path d="M396.353 368.096C394.981 368.096 393.598 367.581 392.534 366.549L347.787 323.23C345.614 321.124 345.559 317.647 347.667 315.475C349.774 313.303 353.253 313.248 355.426 315.354L400.172 358.673C402.346 360.779 402.4 364.257 400.293 366.429C399.218 367.537 397.78 368.096 396.353 368.096Z" fill="#4B5F77"/>
<path d="M452.665 128.169H250.533C246.405 128.169 243.059 131.514 243.059 135.639V274.197C243.059 278.322 246.405 281.667 250.533 281.667H452.665C456.793 281.667 460.139 278.322 460.139 274.197V135.639C460.139 131.514 456.793 128.169 452.665 128.169Z" fill="url(#paint0_linear_3388_12296)"/>
<path d="M458.659 116.805H244.564C238.684 116.805 233.918 121.569 233.918 127.445C233.918 133.322 238.684 138.086 244.564 138.086H458.659C464.539 138.086 469.305 133.322 469.305 127.445C469.305 121.569 464.539 116.805 458.659 116.805Z" fill="#2E2E2E"/>
<path d="M428.905 152.27H274.307C271.331 152.27 268.918 154.681 268.918 157.656V239.862C268.918 242.837 271.331 245.248 274.307 245.248H428.905C431.881 245.248 434.294 242.837 434.294 239.862V157.656C434.294 154.681 431.881 152.27 428.905 152.27Z" fill="white"/>
<path d="M427.961 254.726H275.251C271.753 254.726 268.918 257.559 268.918 261.055C268.918 264.551 271.753 267.385 275.251 267.385H427.961C431.459 267.385 434.294 264.551 434.294 261.055C434.294 257.559 431.459 254.726 427.961 254.726Z" fill="#F2F7FB"/>
<path d="M506.871 213.622H423.195C418.388 213.622 414.48 209.728 414.48 204.912C414.48 200.096 418.377 196.202 423.195 196.202H506.871C511.678 196.202 515.585 200.096 515.585 204.912C515.585 209.728 511.689 213.622 506.871 213.622Z" fill="#4B5F77"/>
<path d="M506.881 213.622C504.489 213.622 502.118 212.646 500.395 210.726L469.093 175.854C465.877 172.278 466.185 166.771 469.763 163.557C473.341 160.343 478.85 160.639 482.066 164.226L513.368 199.098C516.583 202.675 516.276 208.181 512.698 211.395C511.03 212.887 508.956 213.622 506.881 213.622Z" fill="#4B5F77"/>
<path d="M475.567 248.494C473.493 248.494 471.419 247.759 469.751 246.268C466.173 243.053 465.876 237.558 469.081 233.971L500.383 199.098C503.598 195.522 509.097 195.215 512.686 198.429C516.264 201.643 516.56 207.139 513.355 210.726L482.054 245.598C480.331 247.518 477.96 248.494 475.567 248.494Z" fill="#4B5F77"/>
<path d="M521.773 272.526L541.046 315.275L495.246 332.64L521.773 272.526Z" fill="#DFF3E7"/>
<g filter="url(#filter0_d_3388_12296)">
<path d="M153.775 197.059C189.368 197.059 218.222 168.22 218.222 132.645C218.222 97.0704 189.368 68.2314 153.775 68.2314C118.182 68.2314 89.3281 97.0704 89.3281 132.645C89.3281 168.22 118.182 197.059 153.775 197.059Z" fill="url(#paint1_linear_3388_12296)"/>
<path d="M129.629 213.02H176.988C216.861 213.02 249.238 245.38 249.238 285.233V340.618C249.238 350.217 241.446 358.005 231.842 358.005H74.7748C65.1714 358.005 57.3789 350.217 57.3789 340.618V285.233C57.3789 245.38 89.7561 213.02 129.629 213.02Z" fill="url(#paint2_linear_3388_12296)"/>
</g>
<path d="M37.3709 74.7032C58.0103 74.7032 74.7418 57.9803 74.7418 37.3516C74.7418 16.7229 58.0103 0 37.3709 0C16.7315 0 0 16.7229 0 37.3516C0 57.9803 16.7315 74.7032 37.3709 74.7032Z" fill="#F2F7FB"/>
<path d="M14.0655 382.161C16.1749 382.161 17.8849 380.452 17.8849 378.344C17.8849 376.236 16.1749 374.526 14.0655 374.526C11.9561 374.526 10.2461 376.236 10.2461 378.344C10.2461 380.452 11.9561 382.161 14.0655 382.161Z" fill="#F5F7F9"/>
<path d="M32.7882 382.161C34.8976 382.161 36.6076 380.452 36.6076 378.344C36.6076 376.236 34.8976 374.526 32.7882 374.526C30.6788 374.526 28.9688 376.236 28.9688 378.344C28.9688 380.452 30.6788 382.161 32.7882 382.161Z" fill="#F5F7F9"/>
<path d="M51.503 382.161C53.6124 382.161 55.3224 380.452 55.3224 378.344C55.3224 376.236 53.6124 374.526 51.503 374.526C49.3936 374.526 47.6836 376.236 47.6836 378.344C47.6836 380.452 49.3936 382.161 51.503 382.161Z" fill="#F5F7F9"/>
<path d="M14.0655 401.227C16.1749 401.227 17.8849 399.518 17.8849 397.409C17.8849 395.301 16.1749 393.592 14.0655 393.592C11.9561 393.592 10.2461 395.301 10.2461 397.409C10.2461 399.518 11.9561 401.227 14.0655 401.227Z" fill="#F5F7F9"/>
<path d="M32.7882 401.227C34.8976 401.227 36.6076 399.518 36.6076 397.409C36.6076 395.301 34.8976 393.592 32.7882 393.592C30.6788 393.592 28.9688 395.301 28.9688 397.409C28.9688 399.518 30.6788 401.227 32.7882 401.227Z" fill="#F5F7F9"/>
<path d="M51.503 401.227C53.6124 401.227 55.3224 399.518 55.3224 397.409C55.3224 395.301 53.6124 393.592 51.503 393.592C49.3936 393.592 47.6836 395.301 47.6836 397.409C47.6836 399.518 49.3936 401.227 51.503 401.227Z" fill="#F5F7F9"/>
<path d="M14.0655 420.303C16.1749 420.303 17.8849 418.594 17.8849 416.485C17.8849 414.377 16.1749 412.668 14.0655 412.668C11.9561 412.668 10.2461 414.377 10.2461 416.485C10.2461 418.594 11.9561 420.303 14.0655 420.303Z" fill="#F5F7F9"/>
<path d="M32.7882 420.303C34.8976 420.303 36.6076 418.594 36.6076 416.485C36.6076 414.377 34.8976 412.668 32.7882 412.668C30.6788 412.668 28.9688 414.377 28.9688 416.485C28.9688 418.594 30.6788 420.303 32.7882 420.303Z" fill="#F5F7F9"/>
<path d="M51.503 420.303C53.6124 420.303 55.3224 418.594 55.3224 416.485C55.3224 414.377 53.6124 412.668 51.503 412.668C49.3936 412.668 47.6836 414.377 47.6836 416.485C47.6836 418.594 49.3936 420.303 51.503 420.303Z" fill="#F5F7F9"/>
<path d="M14.0655 439.379C16.1749 439.379 17.8849 437.67 17.8849 435.562C17.8849 433.453 16.1749 431.744 14.0655 431.744C11.9561 431.744 10.2461 433.453 10.2461 435.562C10.2461 437.67 11.9561 439.379 14.0655 439.379Z" fill="#F5F7F9"/>
<path d="M32.7882 439.379C34.8976 439.379 36.6076 437.67 36.6076 435.562C36.6076 433.453 34.8976 431.744 32.7882 431.744C30.6788 431.744 28.9688 433.453 28.9688 435.562C28.9688 437.67 30.6788 439.379 32.7882 439.379Z" fill="#F5F7F9"/>
<path d="M70.1944 382.161C72.3038 382.161 74.0138 380.452 74.0138 378.344C74.0138 376.236 72.3038 374.526 70.1944 374.526C68.085 374.526 66.375 376.236 66.375 378.344C66.375 380.452 68.085 382.161 70.1944 382.161Z" fill="#F5F7F9"/>
<path d="M70.1944 401.227C72.3038 401.227 74.0138 399.518 74.0138 397.409C74.0138 395.301 72.3038 393.592 70.1944 393.592C68.085 393.592 66.375 395.301 66.375 397.409C66.375 399.518 68.085 401.227 70.1944 401.227Z" fill="#F5F7F9"/>
<path d="M70.1944 420.303C72.3038 420.303 74.0138 418.594 74.0138 416.485C74.0138 414.377 72.3038 412.668 70.1944 412.668C68.085 412.668 66.375 414.377 66.375 416.485C66.375 418.594 68.085 420.303 70.1944 420.303Z" fill="#F5F7F9"/>
<path d="M70.1944 439.379C72.3038 439.379 74.0138 437.67 74.0138 435.562C74.0138 433.453 72.3038 431.744 70.1944 431.744C68.085 431.744 66.375 433.453 66.375 435.562C66.375 437.67 68.085 439.379 70.1944 439.379Z" fill="#F5F7F9"/>
<path d="M51.503 439.379C53.6124 439.379 55.3224 437.67 55.3224 435.562C55.3224 433.453 53.6124 431.744 51.503 431.744C49.3936 431.744 47.6836 433.453 47.6836 435.562C47.6836 437.67 49.3936 439.379 51.503 439.379Z" fill="#F5F7F9"/>
<mask id="mask0_3388_12296" style="mask-type:luminance" maskUnits="userSpaceOnUse" x="453" y="24" width="40" height="69">
<path d="M492.683 24.374H453.348V92.1444H492.683V24.374Z" fill="white"/>
</mask>
<g mask="url(#mask0_3388_12296)">
<path d="M466.991 25.9532L465.838 24.7246L453.359 36.4182L454.512 37.6468L466.991 25.9532Z" fill="#C9CDD5"/>
<path d="M465.411 37.9983L466.64 36.8465L454.94 24.374L453.711 25.5258L465.411 37.9983Z" fill="#C9CDD5"/>
<path d="M492.694 25.9532L491.541 24.7246L479.062 36.4182L480.215 37.6468L492.694 25.9532Z" fill="#C9CDD5"/>
<path d="M491.114 37.9983L492.344 36.8465L480.655 24.374L479.426 25.5258L491.125 37.9983H491.114Z" fill="#C9CDD5"/>
<path d="M466.991 53.0382L465.838 51.8096L453.359 63.5032L454.512 64.7318L466.991 53.0382Z" fill="#C9CDD5"/>
<path d="M465.4 65.0715L466.629 63.9197L454.94 51.4473L453.711 52.5991L465.4 65.0715Z" fill="#C9CDD5"/>
<path d="M492.694 53.0157L491.541 51.7871L479.062 63.4807L480.215 64.7093L492.694 53.0157Z" fill="#C9CDD5"/>
<path d="M491.114 65.0715L492.343 63.9197L480.643 51.4473L479.414 52.5991L491.114 65.0715Z" fill="#C9CDD5"/>
<path d="M466.991 80.0997L465.838 78.8711L453.359 90.5647L454.512 91.7933L466.991 80.0997Z" fill="#C9CDD5"/>
<path d="M465.4 92.1448L466.629 90.993L454.94 78.5205L453.711 79.6723L465.411 92.1448H465.4Z" fill="#C9CDD5"/>
<path d="M492.694 80.0997L491.541 78.8711L479.062 90.5647L480.215 91.7933L492.694 80.0997Z" fill="#C9CDD5"/>
<path d="M491.102 92.1555L492.331 91.0037L480.632 78.5312L479.402 79.6831L491.091 92.1555H491.102Z" fill="#C9CDD5"/>
</g>
<defs>
<filter id="filter0_d_3388_12296" x="46.0489" y="56.9014" width="225.859" height="323.773" filterUnits="userSpaceOnUse" color-interpolation-filters="sRGB">
<feFlood flood-opacity="0" result="BackgroundImageFix"/>
<feColorMatrix in="SourceAlpha" type="matrix" values="0 0 0 0 0 0 0 0 0 0 0 0 0 0 0 0 0 0 127 0" result="hardAlpha"/>
<feOffset dx="5.67" dy="5.67"/>
<feGaussianBlur stdDeviation="8.5"/>
<feColorMatrix type="matrix" values="0 0 0 0 0.219608 0 0 0 0 0.298039 0 0 0 0 0.317647 0 0 0 0.15 0"/>
<feBlend mode="normal" in2="BackgroundImageFix" result="effect1_dropShadow_3388_12296"/>
<feBlend mode="normal" in="SourceGraphic" in2="effect1_dropShadow_3388_12296" result="shape"/>
</filter>
<linearGradient id="paint0_linear_3388_12296" x1="290.417" y1="103.005" x2="412.688" y2="306.876" gradientUnits="userSpaceOnUse">
<stop stop-color="#C2F5DF"/>
<stop offset="1" stop-color="#8BB0DD"/>
</linearGradient>
<linearGradient id="paint1_linear_3388_12296" x1="81.81" y1="28.6859" x2="296.863" y2="339.669" gradientUnits="userSpaceOnUse">
<stop stop-color="#77C2C8"/>
<stop offset="1" stop-color="#4B5F77"/>
</linearGradient>
<linearGradient id="paint2_linear_3388_12296" x1="1.09754" y1="84.4994" x2="216.162" y2="395.483" gradientUnits="userSpaceOnUse">
<stop stop-color="#77C2C8"/>
<stop offset="1" stop-color="#4B5F77"/>
</linearGradient>
</defs>
</svg>
