<svg width="44" height="75" viewBox="0 0 44 75" fill="none" xmlns="http://www.w3.org/2000/svg">
<g clip-path="url(#clip0_1781_10771)">
<path d="M14.9186 1.734L13.6602 0.391602L0.00998193 13.1876L1.26838 14.53L14.9186 1.734Z" fill="#C9CED6"/>
<path d="M13.1849 14.9176L14.5273 13.6592L1.73137 0.00900537L0.388974 1.2674L13.1849 14.9176Z" fill="#C9CED6"/>
<path d="M43.0396 1.72912L41.7812 0.386719L28.1311 13.1827L29.3895 14.5251L43.0396 1.72912Z" fill="#C9CED6"/>
<path d="M41.3099 14.9088L42.6523 13.6504L29.8564 0.000216304L28.514 1.25861L41.3099 14.9088Z" fill="#C9CED6"/>
<path d="M14.9225 31.3678L13.6641 30.0254L0.0138882 42.8214L1.27228 44.1638L14.9225 31.3678Z" fill="#C9CED6"/>
<path d="M13.1849 44.5504L14.5273 43.292L1.73137 29.6418L0.388974 30.9002L13.1849 44.5504Z" fill="#C9CED6"/>
<path d="M43.0436 31.3541L41.7852 30.0117L28.135 42.8077L29.3934 44.1501L43.0436 31.3541Z" fill="#C9CED6"/>
<path d="M41.3178 44.5523L42.6602 43.2939L29.8642 29.6438L28.5218 30.9022L41.3178 44.5523Z" fill="#C9CED6"/>
<path d="M14.9186 60.9996L13.6602 59.6572L0.00997915 72.4532L1.26837 73.7956L14.9186 60.9996Z" fill="#C9CED6"/>
<path d="M13.181 74.1861L14.5234 72.9277L1.72747 59.2776L0.385065 60.536L13.181 74.1861Z" fill="#C9CED6"/>
<path d="M43.0396 60.9947L41.7812 59.6523L28.1311 72.4483L29.3895 73.7907L43.0396 60.9947Z" fill="#C9CED6"/>
<path d="M41.306 74.1881L42.6484 72.9297L29.8525 59.2795L28.5101 60.5379L41.306 74.1881Z" fill="#C9CED6"/>
</g>
<defs>
<clipPath id="clip0_1781_10771">
<rect width="43.04" height="74.18" fill="white"/>
</clipPath>
</defs>
</svg>
