<svg width="198" height="177" viewBox="0 0 198 177" fill="none" xmlns="http://www.w3.org/2000/svg">
<g clip-path="url(#clip0_1781_10719)">
<path d="M1.87 3.74C2.90277 3.74 3.74 2.90277 3.74 1.87C3.74 0.837227 2.90277 0 1.87 0C0.837227 0 0 0.837227 0 1.87C0 2.90277 0.837227 3.74 1.87 3.74Z" fill="#C9CED6"/>
<path d="M34.1083 3.74C35.1411 3.74 35.9783 2.90277 35.9783 1.87C35.9783 0.837227 35.1411 0 34.1083 0C33.0755 0 32.2383 0.837227 32.2383 1.87C32.2383 2.90277 33.0755 3.74 34.1083 3.74Z" fill="#C9CED6"/>
<path d="M66.3387 3.74C67.3715 3.74 68.2087 2.90277 68.2087 1.87C68.2087 0.837227 67.3715 0 66.3387 0C65.306 0 64.4688 0.837227 64.4688 1.87C64.4688 2.90277 65.306 3.74 66.3387 3.74Z" fill="#C9CED6"/>
<path d="M98.5692 3.74C99.602 3.74 100.439 2.90277 100.439 1.87C100.439 0.837227 99.602 0 98.5692 0C97.5364 0 96.6992 0.837227 96.6992 1.87C96.6992 2.90277 97.5364 3.74 98.5692 3.74Z" fill="#C9CED6"/>
<path d="M130.811 3.74C131.844 3.74 132.681 2.90277 132.681 1.87C132.681 0.837227 131.844 0 130.811 0C129.779 0 128.941 0.837227 128.941 1.87C128.941 2.90277 129.779 3.74 130.811 3.74Z" fill="#C9CED6"/>
<path d="M163.042 3.74C164.075 3.74 164.912 2.90277 164.912 1.87C164.912 0.837227 164.075 0 163.042 0C162.009 0 161.172 0.837227 161.172 1.87C161.172 2.90277 162.009 3.74 163.042 3.74Z" fill="#C9CED6"/>
<path d="M195.28 3.74C196.313 3.74 197.15 2.90277 197.15 1.87C197.15 0.837227 196.313 0 195.28 0C194.247 0 193.41 0.837227 193.41 1.87C193.41 2.90277 194.247 3.74 195.28 3.74Z" fill="#C9CED6"/>
<path d="M1.87 32.5095C2.90277 32.5095 3.74 31.6723 3.74 30.6395C3.74 29.6068 2.90277 28.7695 1.87 28.7695C0.837227 28.7695 0 29.6068 0 30.6395C0 31.6723 0.837227 32.5095 1.87 32.5095Z" fill="#C9CED6"/>
<path d="M34.1083 32.5095C35.1411 32.5095 35.9783 31.6723 35.9783 30.6395C35.9783 29.6068 35.1411 28.7695 34.1083 28.7695C33.0755 28.7695 32.2383 29.6068 32.2383 30.6395C32.2383 31.6723 33.0755 32.5095 34.1083 32.5095Z" fill="#C9CED6"/>
<path d="M66.3387 32.5095C67.3715 32.5095 68.2087 31.6723 68.2087 30.6395C68.2087 29.6068 67.3715 28.7695 66.3387 28.7695C65.306 28.7695 64.4688 29.6068 64.4688 30.6395C64.4688 31.6723 65.306 32.5095 66.3387 32.5095Z" fill="#C9CED6"/>
<path d="M98.5692 32.5095C99.602 32.5095 100.439 31.6723 100.439 30.6395C100.439 29.6068 99.602 28.7695 98.5692 28.7695C97.5364 28.7695 96.6992 29.6068 96.6992 30.6395C96.6992 31.6723 97.5364 32.5095 98.5692 32.5095Z" fill="#C9CED6"/>
<path d="M130.811 32.5095C131.844 32.5095 132.681 31.6723 132.681 30.6395C132.681 29.6068 131.844 28.7695 130.811 28.7695C129.779 28.7695 128.941 29.6068 128.941 30.6395C128.941 31.6723 129.779 32.5095 130.811 32.5095Z" fill="#C9CED6"/>
<path d="M163.042 32.5095C164.075 32.5095 164.912 31.6723 164.912 30.6395C164.912 29.6068 164.075 28.7695 163.042 28.7695C162.009 28.7695 161.172 29.6068 161.172 30.6395C161.172 31.6723 162.009 32.5095 163.042 32.5095Z" fill="#C9CED6"/>
<path d="M195.28 32.5095C196.313 32.5095 197.15 31.6723 197.15 30.6395C197.15 29.6068 196.313 28.7695 195.28 28.7695C194.247 28.7695 193.41 29.6068 193.41 30.6395C193.41 31.6723 194.247 32.5095 195.28 32.5095Z" fill="#C9CED6"/>
<path d="M1.87 61.2703C2.90277 61.2703 3.74 60.433 3.74 59.4003C3.74 58.3675 2.90277 57.5303 1.87 57.5303C0.837227 57.5303 0 58.3675 0 59.4003C0 60.433 0.837227 61.2703 1.87 61.2703Z" fill="#C9CED6"/>
<path d="M34.1083 61.2703C35.1411 61.2703 35.9783 60.433 35.9783 59.4003C35.9783 58.3675 35.1411 57.5303 34.1083 57.5303C33.0755 57.5303 32.2383 58.3675 32.2383 59.4003C32.2383 60.433 33.0755 61.2703 34.1083 61.2703Z" fill="#C9CED6"/>
<path d="M66.3387 61.2703C67.3715 61.2703 68.2087 60.433 68.2087 59.4003C68.2087 58.3675 67.3715 57.5303 66.3387 57.5303C65.306 57.5303 64.4688 58.3675 64.4688 59.4003C64.4688 60.433 65.306 61.2703 66.3387 61.2703Z" fill="#C9CED6"/>
<path d="M98.5692 61.2703C99.602 61.2703 100.439 60.433 100.439 59.4003C100.439 58.3675 99.602 57.5303 98.5692 57.5303C97.5364 57.5303 96.6992 58.3675 96.6992 59.4003C96.6992 60.433 97.5364 61.2703 98.5692 61.2703Z" fill="#C9CED6"/>
<path d="M130.811 61.2703C131.844 61.2703 132.681 60.433 132.681 59.4003C132.681 58.3675 131.844 57.5303 130.811 57.5303C129.779 57.5303 128.941 58.3675 128.941 59.4003C128.941 60.433 129.779 61.2703 130.811 61.2703Z" fill="#C9CED6"/>
<path d="M163.042 61.2703C164.075 61.2703 164.912 60.433 164.912 59.4003C164.912 58.3675 164.075 57.5303 163.042 57.5303C162.009 57.5303 161.172 58.3675 161.172 59.4003C161.172 60.433 162.009 61.2703 163.042 61.2703Z" fill="#C9CED6"/>
<path d="M195.28 61.2703C196.313 61.2703 197.15 60.433 197.15 59.4003C197.15 58.3675 196.313 57.5303 195.28 57.5303C194.247 57.5303 193.41 58.3675 193.41 59.4003C193.41 60.433 194.247 61.2703 195.28 61.2703Z" fill="#C9CED6"/>
<path d="M1.87 90.0398C2.90277 90.0398 3.74 89.2026 3.74 88.1698C3.74 87.137 2.90277 86.2998 1.87 86.2998C0.837227 86.2998 0 87.137 0 88.1698C0 89.2026 0.837227 90.0398 1.87 90.0398Z" fill="#C9CED6"/>
<path d="M34.1083 90.0398C35.1411 90.0398 35.9783 89.2026 35.9783 88.1698C35.9783 87.137 35.1411 86.2998 34.1083 86.2998C33.0755 86.2998 32.2383 87.137 32.2383 88.1698C32.2383 89.2026 33.0755 90.0398 34.1083 90.0398Z" fill="#C9CED6"/>
<path d="M66.3387 90.0398C67.3715 90.0398 68.2087 89.2026 68.2087 88.1698C68.2087 87.137 67.3715 86.2998 66.3387 86.2998C65.306 86.2998 64.4688 87.137 64.4688 88.1698C64.4688 89.2026 65.306 90.0398 66.3387 90.0398Z" fill="#C9CED6"/>
<path d="M98.5692 90.0398C99.602 90.0398 100.439 89.2026 100.439 88.1698C100.439 87.137 99.602 86.2998 98.5692 86.2998C97.5364 86.2998 96.6992 87.137 96.6992 88.1698C96.6992 89.2026 97.5364 90.0398 98.5692 90.0398Z" fill="#C9CED6"/>
<path d="M130.811 90.0398C131.844 90.0398 132.681 89.2026 132.681 88.1698C132.681 87.137 131.844 86.2998 130.811 86.2998C129.779 86.2998 128.941 87.137 128.941 88.1698C128.941 89.2026 129.779 90.0398 130.811 90.0398Z" fill="#C9CED6"/>
<path d="M163.042 90.0398C164.075 90.0398 164.912 89.2026 164.912 88.1698C164.912 87.137 164.075 86.2998 163.042 86.2998C162.009 86.2998 161.172 87.137 161.172 88.1698C161.172 89.2026 162.009 90.0398 163.042 90.0398Z" fill="#C9CED6"/>
<path d="M195.28 90.0398C196.313 90.0398 197.15 89.2026 197.15 88.1698C197.15 87.137 196.313 86.2998 195.28 86.2998C194.247 86.2998 193.41 87.137 193.41 88.1698C193.41 89.2026 194.247 90.0398 195.28 90.0398Z" fill="#C9CED6"/>
<path d="M1.87 118.81C2.90277 118.81 3.74 117.973 3.74 116.94C3.74 115.908 2.90277 115.07 1.87 115.07C0.837227 115.07 0 115.908 0 116.94C0 117.973 0.837227 118.81 1.87 118.81Z" fill="#C9CED6"/>
<path d="M34.1083 118.81C35.1411 118.81 35.9783 117.973 35.9783 116.94C35.9783 115.908 35.1411 115.07 34.1083 115.07C33.0755 115.07 32.2383 115.908 32.2383 116.94C32.2383 117.973 33.0755 118.81 34.1083 118.81Z" fill="#C9CED6"/>
<path d="M66.3387 118.81C67.3715 118.81 68.2087 117.973 68.2087 116.94C68.2087 115.908 67.3715 115.07 66.3387 115.07C65.306 115.07 64.4688 115.908 64.4688 116.94C64.4688 117.973 65.306 118.81 66.3387 118.81Z" fill="#C9CED6"/>
<path d="M98.5692 118.81C99.602 118.81 100.439 117.973 100.439 116.94C100.439 115.908 99.602 115.07 98.5692 115.07C97.5364 115.07 96.6992 115.908 96.6992 116.94C96.6992 117.973 97.5364 118.81 98.5692 118.81Z" fill="#C9CED6"/>
<path d="M130.811 118.81C131.844 118.81 132.681 117.973 132.681 116.94C132.681 115.908 131.844 115.07 130.811 115.07C129.779 115.07 128.941 115.908 128.941 116.94C128.941 117.973 129.779 118.81 130.811 118.81Z" fill="#C9CED6"/>
<path d="M163.042 118.81C164.075 118.81 164.912 117.973 164.912 116.94C164.912 115.908 164.075 115.07 163.042 115.07C162.009 115.07 161.172 115.908 161.172 116.94C161.172 117.973 162.009 118.81 163.042 118.81Z" fill="#C9CED6"/>
<path d="M195.28 118.81C196.313 118.81 197.15 117.973 197.15 116.94C197.15 115.908 196.313 115.07 195.28 115.07C194.247 115.07 193.41 115.908 193.41 116.94C193.41 117.973 194.247 118.81 195.28 118.81Z" fill="#C9CED6"/>
<path d="M1.87 147.57C2.90277 147.57 3.74 146.733 3.74 145.7C3.74 144.667 2.90277 143.83 1.87 143.83C0.837227 143.83 0 144.667 0 145.7C0 146.733 0.837227 147.57 1.87 147.57Z" fill="#C9CED6"/>
<path d="M34.1083 147.57C35.1411 147.57 35.9783 146.733 35.9783 145.7C35.9783 144.667 35.1411 143.83 34.1083 143.83C33.0755 143.83 32.2383 144.667 32.2383 145.7C32.2383 146.733 33.0755 147.57 34.1083 147.57Z" fill="#C9CED6"/>
<path d="M66.3387 147.57C67.3715 147.57 68.2087 146.733 68.2087 145.7C68.2087 144.667 67.3715 143.83 66.3387 143.83C65.306 143.83 64.4688 144.667 64.4688 145.7C64.4688 146.733 65.306 147.57 66.3387 147.57Z" fill="#C9CED6"/>
<path d="M98.5692 147.57C99.602 147.57 100.439 146.733 100.439 145.7C100.439 144.667 99.602 143.83 98.5692 143.83C97.5364 143.83 96.6992 144.667 96.6992 145.7C96.6992 146.733 97.5364 147.57 98.5692 147.57Z" fill="#C9CED6"/>
<path d="M130.811 147.57C131.844 147.57 132.681 146.733 132.681 145.7C132.681 144.667 131.844 143.83 130.811 143.83C129.779 143.83 128.941 144.667 128.941 145.7C128.941 146.733 129.779 147.57 130.811 147.57Z" fill="#C9CED6"/>
<path d="M163.042 147.57C164.075 147.57 164.912 146.733 164.912 145.7C164.912 144.667 164.075 143.83 163.042 143.83C162.009 143.83 161.172 144.667 161.172 145.7C161.172 146.733 162.009 147.57 163.042 147.57Z" fill="#C9CED6"/>
<path d="M195.28 147.57C196.313 147.57 197.15 146.733 197.15 145.7C197.15 144.667 196.313 143.83 195.28 143.83C194.247 143.83 193.41 144.667 193.41 145.7C193.41 146.733 194.247 147.57 195.28 147.57Z" fill="#C9CED6"/>
<path d="M1.87 176.34C2.90277 176.34 3.74 175.502 3.74 174.47C3.74 173.437 2.90277 172.6 1.87 172.6C0.837227 172.6 0 173.437 0 174.47C0 175.502 0.837227 176.34 1.87 176.34Z" fill="#C9CED6"/>
<path d="M34.1083 176.34C35.1411 176.34 35.9783 175.502 35.9783 174.47C35.9783 173.437 35.1411 172.6 34.1083 172.6C33.0755 172.6 32.2383 173.437 32.2383 174.47C32.2383 175.502 33.0755 176.34 34.1083 176.34Z" fill="#C9CED6"/>
<path d="M66.3387 176.34C67.3715 176.34 68.2087 175.502 68.2087 174.47C68.2087 173.437 67.3715 172.6 66.3387 172.6C65.306 172.6 64.4688 173.437 64.4688 174.47C64.4688 175.502 65.306 176.34 66.3387 176.34Z" fill="#C9CED6"/>
<path d="M98.5692 176.34C99.602 176.34 100.439 175.502 100.439 174.47C100.439 173.437 99.602 172.6 98.5692 172.6C97.5364 172.6 96.6992 173.437 96.6992 174.47C96.6992 175.502 97.5364 176.34 98.5692 176.34Z" fill="#C9CED6"/>
<path d="M130.811 176.34C131.844 176.34 132.681 175.502 132.681 174.47C132.681 173.437 131.844 172.6 130.811 172.6C129.779 172.6 128.941 173.437 128.941 174.47C128.941 175.502 129.779 176.34 130.811 176.34Z" fill="#C9CED6"/>
<path d="M163.042 176.34C164.075 176.34 164.912 175.502 164.912 174.47C164.912 173.437 164.075 172.6 163.042 172.6C162.009 172.6 161.172 173.437 161.172 174.47C161.172 175.502 162.009 176.34 163.042 176.34Z" fill="#C9CED6"/>
<path d="M195.28 176.34C196.313 176.34 197.15 175.502 197.15 174.47C197.15 173.437 196.313 172.6 195.28 172.6C194.247 172.6 193.41 173.437 193.41 174.47C193.41 175.502 194.247 176.34 195.28 176.34Z" fill="#C9CED6"/>
</g>
<defs>
<clipPath id="clip0_1781_10719">
<rect width="197.15" height="176.34" fill="white"/>
</clipPath>
</defs>
</svg>
