<svg width="380" height="284" viewBox="0 0 380 284" fill="none" xmlns="http://www.w3.org/2000/svg">
<g clip-path="url(#clip0_1781_10705)">
<path d="M10.3392 197.845C-3.44634 211.631 -3.44792 233.98 10.3356 247.763C24.1192 261.547 46.4683 261.545 60.2538 247.76L225.894 82.1201C239.679 68.3346 239.681 45.9854 225.897 32.2019C212.114 18.4183 189.764 18.4199 175.979 32.2054L10.3392 197.845Z" fill="#5D8DAA"/>
<path d="M156.15 186.877C146.157 196.87 146.155 213.071 156.147 223.063C166.139 233.055 182.34 233.053 192.333 223.059L371.705 43.6877C381.698 33.6941 381.7 17.493 371.708 7.50146C361.717 -2.4901 345.516 -2.48851 335.522 7.505L156.15 186.877Z" fill="#5D8DAA"/>
<path d="M103.002 240.011C93.0109 250.003 93.0109 266.202 103.002 276.194C112.994 286.185 129.194 286.185 139.185 276.194C149.177 266.202 149.177 250.003 139.185 240.011C129.194 230.02 112.994 230.02 103.002 240.011Z" fill="#5D8DAA"/>
</g>
<defs>
<clipPath id="clip0_1781_10705">
<rect width="379.19" height="283.68" fill="white"/>
</clipPath>
</defs>
</svg>
