<svg width="1158" height="561" viewBox="0 0 1158 561" fill="none" xmlns="http://www.w3.org/2000/svg">
<g clip-path="url(#clip0_1659_10701)">
<rect width="1174.09" height="441.632" transform="matrix(-0.994668 0.103129 0.103129 0.994668 1167.83 0)" fill="white" style="mix-blend-mode:multiply"/>
<path d="M460.261 266.62C494.293 265.088 528.293 261.489 561.784 256.144C651.073 241.883 731.484 211.226 815.841 184.377C841.639 176.152 867.8 168.596 894.486 162.646C979.42 143.689 1068.73 145.334 1149.11 170.681C1154.84 172.494 1160.5 174.398 1166.11 176.444C1242.37 203.981 1307.12 247.381 1367.69 292.139C1369.74 293.645 1373.94 296.173 1373.94 296.173L1384.26 420.146L1385.21 430.914C1385.21 430.914 1374.95 420.03 1371.78 417.527C1268.45 335.247 1151.44 244.688 999.992 227.158C931.171 219.186 861.678 222.537 792.548 232.233C782.947 233.567 773.358 235.04 763.773 236.568C689.198 248.564 613.769 267.37 537.116 271.544C460.715 275.724 383.435 271.059 309.248 259.007C305.005 258.327 300.757 257.592 296.537 256.854C349.902 266.231 405.122 269.078 460.258 266.592L460.261 266.62ZM469.153 266.156C482.332 265.557 495.619 264.585 509.068 263.209C514.077 262.706 519.082 262.148 524.085 261.562L469.153 266.156ZM575.618 254.037C575.563 254.041 575.482 254.076 575.429 254.109C576.061 254 576.722 253.889 577.355 253.78C576.773 253.828 576.219 253.875 575.643 254.007L575.618 254.037ZM587.198 252.006C587.584 251.946 587.967 251.858 588.38 251.795C588.103 251.818 587.798 251.844 587.517 251.812C587.413 251.904 587.304 251.941 587.198 252.006ZM441.961 267.06C441.513 267.041 441.065 267.023 440.647 267.03C440.217 267.233 440.282 267.34 441.961 267.06Z" fill="#BCF8FC" style="mix-blend-mode:multiply"/>
<g style="mix-blend-mode:multiply">
<path d="M138.406 232.166C140.37 231.962 142.209 231.631 143.814 231.465C142.341 232.094 140.41 232.07 138.406 232.166Z" fill="url(#paint0_linear_1659_10701)"/>
<path d="M164.259 228.84C164.343 228.832 164.398 228.826 164.482 228.817C164.488 228.873 164.493 228.929 164.502 229.013C164.441 228.963 164.351 228.915 164.287 228.838L164.259 228.84Z" fill="url(#paint1_linear_1659_10701)"/>
<path d="M85.0331 437.878C83.1188 406.201 81.6137 374.424 76.5457 343.074C74.0341 327.48 70.668 312.003 65.9328 296.808C61.5732 282.806 51.4217 268.229 49.8533 253.91C49.2538 248.398 50.5663 243.528 55.4826 240.245C60.7357 236.703 69.5909 237.97 75.5516 238.556C220.414 252.528 350.852 188.332 473.918 132.044C522.582 109.772 570.722 86.4895 623.658 71.7014C723.9 43.6614 831.487 41.6941 927.747 71.7971C970.229 85.0954 1008.88 103.244 1045.01 124.624C1068.75 138.661 1090.23 154.837 1110.95 171.624C1145.9 199.905 1177.66 230.337 1206.05 262.995C1215.63 274.018 1225.11 285.08 1234.62 296.139L1237.94 328.203C1235.78 327.783 1235 326.267 1233.89 325.009C1210.62 298.487 1184.8 273.601 1157.21 249.908C1118.63 216.766 1076 186.396 1028.1 161.839C928.283 110.677 793.735 92.3583 679.159 136.674C642.14 150.988 608.204 170.221 576.897 191.618C484.469 254.842 410.39 332.689 311.529 390.502C246.387 428.6 167.555 457.641 88.5961 467.929C85.783 468.305 82.5654 468.554 80.4594 467.12C76.2808 464.304 80.3091 458.928 82.6485 454.792C85.6256 449.526 85.376 443.613 85.0388 437.934L85.0331 437.878Z" fill="url(#paint2_linear_1659_10701)"/>
</g>
</g>
<defs>
<linearGradient id="paint0_linear_1659_10701" x1="138.406" y1="232.166" x2="143.828" y2="231.603" gradientUnits="userSpaceOnUse">
<stop stop-color="white" stop-opacity="0"/>
<stop offset="0.05" stop-color="#F6F5FE" stop-opacity="0.19"/>
<stop offset="0.09" stop-color="#EFEDFD" stop-opacity="0.36"/>
<stop offset="0.15" stop-color="#E9E6FC" stop-opacity="0.51"/>
<stop offset="0.2" stop-color="#E3E0FC" stop-opacity="0.64"/>
<stop offset="0.27" stop-color="#DEDAFB" stop-opacity="0.76"/>
<stop offset="0.34" stop-color="#DAD6FB" stop-opacity="0.85"/>
<stop offset="0.42" stop-color="#D7D3FB" stop-opacity="0.92"/>
<stop offset="0.52" stop-color="#D5D0FB" stop-opacity="0.96"/>
<stop offset="0.66" stop-color="#D4CFFB" stop-opacity="0.99"/>
<stop offset="1" stop-color="#D4CFFB"/>
</linearGradient>
<linearGradient id="paint1_linear_1659_10701" x1="164.271" y1="228.952" x2="164.493" y2="228.929" gradientUnits="userSpaceOnUse">
<stop stop-color="white" stop-opacity="0"/>
<stop offset="0.05" stop-color="#F6F5FE" stop-opacity="0.19"/>
<stop offset="0.09" stop-color="#EFEDFD" stop-opacity="0.36"/>
<stop offset="0.15" stop-color="#E9E6FC" stop-opacity="0.51"/>
<stop offset="0.2" stop-color="#E3E0FC" stop-opacity="0.64"/>
<stop offset="0.27" stop-color="#DEDAFB" stop-opacity="0.76"/>
<stop offset="0.34" stop-color="#DAD6FB" stop-opacity="0.85"/>
<stop offset="0.42" stop-color="#D7D3FB" stop-opacity="0.92"/>
<stop offset="0.52" stop-color="#D5D0FB" stop-opacity="0.96"/>
<stop offset="0.66" stop-color="#D4CFFB" stop-opacity="0.99"/>
<stop offset="1" stop-color="#D4CFFB"/>
</linearGradient>
<linearGradient id="paint2_linear_1659_10701" x1="1222.14" y1="175.754" x2="54.3037" y2="296.837" gradientUnits="userSpaceOnUse">
<stop offset="0.514423" stop-color="#C7DDFF"/>
<stop offset="1" stop-color="#C7DDFF" stop-opacity="0"/>
</linearGradient>
<clipPath id="clip0_1659_10701">
<rect width="1174.09" height="441.632" fill="white" transform="matrix(-0.994668 0.103129 0.103129 0.994668 1167.83 0)"/>
</clipPath>
</defs>
</svg>
