<svg width="741" height="444" viewBox="0 0 741 444" fill="none" xmlns="http://www.w3.org/2000/svg">
<g clip-path="url(#clip0_525_14880)">
<rect width="1180" height="444" transform="translate(-439)" fill="white" style="mix-blend-mode:multiply"/>
<path d="M473.61 201.901C439.396 203.217 405.043 202.461 371.053 199.912C280.432 193.106 197.331 169.128 110.595 149.297C84.0686 143.218 57.2345 137.84 30.0091 134.115C-56.6426 122.238 -145.95 131.37 -224.327 163.498C-229.918 165.795 -235.425 168.176 -240.875 170.697C-314.948 204.674 -376.164 253.581 -433.074 303.496C-435.003 305.177 -439 308.062 -439 308.062L-438.944 433.131L-439 443.999C-439 443.999 -429.636 432.234 -426.673 429.461C-330.07 338.37 -220.47 237.839 -70.2552 207.587C-1.9961 193.834 67.8843 191.369 137.932 195.29C147.66 195.823 157.387 196.495 167.114 197.223C242.809 202.993 319.929 215.514 397.049 213.273C473.917 211.06 550.925 199.912 624.216 181.621C628.409 180.585 632.602 179.492 636.766 178.4C584.105 192.265 529.039 199.744 473.61 201.873V201.901ZM464.665 202.181C451.416 202.685 438.027 202.825 424.442 202.573C419.383 202.489 414.323 202.349 409.264 202.181H464.665ZM357.021 198.96C357.077 198.96 357.161 198.988 357.217 199.016C356.574 198.96 355.903 198.904 355.26 198.848C355.847 198.848 356.406 198.848 356.993 198.932L357.021 198.96ZM345.253 197.895C344.862 197.867 344.471 197.811 344.052 197.783C344.331 197.783 344.639 197.783 344.918 197.727C345.03 197.811 345.142 197.839 345.253 197.895ZM491.974 200.809C492.422 200.752 492.869 200.696 493.288 200.668C493.735 200.837 493.679 200.949 491.974 200.809Z" fill="#BCF8FC" style="mix-blend-mode:multiply"/>
<g style="mix-blend-mode:multiply">
<path d="M614.153 125.431C612.169 125.431 610.296 125.291 608.675 125.291C610.212 125.767 612.141 125.543 614.153 125.431Z" fill="url(#paint0_linear_525_14880)"/>
<path d="M587.963 124.787C587.879 124.787 587.823 124.787 587.738 124.787C587.738 124.843 587.738 124.9 587.738 124.984C587.795 124.928 587.879 124.872 587.935 124.787H587.963Z" fill="url(#paint1_linear_525_14880)"/>
<path d="M724.9 318.903C723.53 287.026 721.741 255.094 723.558 223.217C724.452 207.363 726.213 191.537 729.372 175.851C732.279 161.397 740.916 145.767 741 131.286C741.028 125.712 739.211 120.978 733.956 118.205C728.338 115.208 719.617 117.392 713.719 118.597C570.352 147.588 433.303 96.9165 304.443 53.3877C253.487 36.161 202.949 17.8699 148.498 8.57029C45.3828 -9.07654 -62.3727 0.111016 -155.481 40.1945C-196.571 57.8974 -233.328 80.054 -267.234 105.18C-289.512 121.678 -309.302 140.081 -328.282 159.017C-360.287 190.921 -388.882 224.646 -413.871 260.248C-422.313 272.264 -430.642 284.309 -439 296.354V328.762C-436.876 328.118 -436.261 326.521 -435.282 325.149C-414.765 296.214 -391.537 268.651 -366.408 242.097C-331.272 204.954 -291.804 170.165 -246.466 140.641C-151.987 79.1296 -19.3823 46.8611 99.7497 79.2977C138.24 89.7738 174.158 105.488 207.673 123.639C306.624 177.28 388.747 247.447 493.568 295.009C562.637 326.353 644.453 347.222 724.452 349.322C727.303 349.406 730.546 349.322 732.503 347.67C736.388 344.42 731.804 339.463 729.036 335.569C725.514 330.611 725.151 324.673 724.9 318.959V318.903Z" fill="url(#paint2_linear_525_14880)"/>
</g>
</g>
<defs>
<linearGradient id="paint0_linear_525_14880" x1="614.153" y1="125.431" x2="608.675" y2="125.431" gradientUnits="userSpaceOnUse">
<stop stop-color="white" stop-opacity="0"/>
<stop offset="0.05" stop-color="#F6F5FE" stop-opacity="0.19"/>
<stop offset="0.09" stop-color="#EFEDFD" stop-opacity="0.36"/>
<stop offset="0.15" stop-color="#E9E6FC" stop-opacity="0.51"/>
<stop offset="0.2" stop-color="#E3E0FC" stop-opacity="0.64"/>
<stop offset="0.27" stop-color="#DEDAFB" stop-opacity="0.76"/>
<stop offset="0.34" stop-color="#DAD6FB" stop-opacity="0.85"/>
<stop offset="0.42" stop-color="#D7D3FB" stop-opacity="0.92"/>
<stop offset="0.52" stop-color="#D5D0FB" stop-opacity="0.96"/>
<stop offset="0.66" stop-color="#D4CFFB" stop-opacity="0.99"/>
<stop offset="1" stop-color="#D4CFFB"/>
</linearGradient>
<linearGradient id="paint1_linear_525_14880" x1="587.963" y1="124.9" x2="587.738" y2="124.9" gradientUnits="userSpaceOnUse">
<stop stop-color="white" stop-opacity="0"/>
<stop offset="0.05" stop-color="#F6F5FE" stop-opacity="0.19"/>
<stop offset="0.09" stop-color="#EFEDFD" stop-opacity="0.36"/>
<stop offset="0.15" stop-color="#E9E6FC" stop-opacity="0.51"/>
<stop offset="0.2" stop-color="#E3E0FC" stop-opacity="0.64"/>
<stop offset="0.27" stop-color="#DEDAFB" stop-opacity="0.76"/>
<stop offset="0.34" stop-color="#DAD6FB" stop-opacity="0.85"/>
<stop offset="0.42" stop-color="#D7D3FB" stop-opacity="0.92"/>
<stop offset="0.52" stop-color="#D5D0FB" stop-opacity="0.96"/>
<stop offset="0.66" stop-color="#D4CFFB" stop-opacity="0.99"/>
<stop offset="1" stop-color="#D4CFFB"/>
</linearGradient>
<linearGradient id="paint2_linear_525_14880" x1="-439" y1="174.675" x2="741" y2="174.675" gradientUnits="userSpaceOnUse">
<stop offset="0.514423" stop-color="#C7DDFF"/>
<stop offset="1" stop-color="#C7DDFF" stop-opacity="0"/>
</linearGradient>
<clipPath id="clip0_525_14880">
<rect width="1180" height="444" fill="white" transform="translate(-439)"/>
</clipPath>
</defs>
</svg>
