<svg width="33" height="28" viewBox="0 0 33 28" fill="none" xmlns="http://www.w3.org/2000/svg">
<path d="M2 3.33018V11.3302M2 11.3302H10M2 11.3302L8.18667 5.51685C9.61966 4.08313 11.3925 3.03579 13.3397 2.47254C15.287 1.9093 17.3452 1.84851 19.3223 2.29586C21.2994 2.7432 23.1309 3.68409 24.646 5.03074C26.1612 6.37738 27.3104 8.08589 27.9867 9.99685M31.3333 24.6635V16.6635M31.3333 16.6635H23.3333M31.3333 16.6635L25.1467 22.4768C23.7137 23.9106 21.9408 24.9579 19.9936 25.5211C18.0463 26.0844 15.9881 26.1452 14.011 25.6978C12.034 25.2505 10.2024 24.3096 8.68729 22.963C7.17218 21.6163 6.02289 19.9078 5.34667 17.9968" stroke="url(#paint0_linear_527_14657)" stroke-width="3" stroke-linecap="round" stroke-linejoin="round"/>
<defs>
<linearGradient id="paint0_linear_527_14657" x1="16.6667" y1="2" x2="16.6667" y2="25.9937" gradientUnits="userSpaceOnUse">
<stop stop-color="#A1F1FC"/>
<stop offset="1" stop-color="#83AEEF"/>
</linearGradient>
</defs>
</svg>
