<svg width="26" height="28" viewBox="0 0 26 28" fill="none" xmlns="http://www.w3.org/2000/svg">
<path d="M24 14.3889C24.0042 16.0021 23.6273 17.5934 22.9 19.0333C22.0376 20.7588 20.7119 22.2101 19.0713 23.2247C17.4307 24.2393 15.5401 24.777 13.6111 24.7778C11.9979 24.782 10.4066 24.4051 8.96666 23.6778L2 26L4.32222 19.0333C3.59491 17.5934 3.21801 16.0021 3.22222 14.3889C3.22297 12.4599 3.76075 10.5693 4.77532 8.9287C5.78989 7.28811 7.24119 5.96239 8.96666 5.10003C10.4066 4.37273 11.9979 3.99583 13.6111 4.00003H14.2222C16.7697 4.14058 19.1759 5.21585 20.98 7.01997C22.7841 8.82409 23.8594 11.2303 24 13.7778V14.3889Z" stroke="url(#paint0_linear_528_14933)" stroke-width="3" stroke-linecap="round" stroke-linejoin="round"/>
<path d="M9.29048 16.1545C8.90696 16.1545 8.57848 16.0195 8.30504 15.7496C8.03516 15.4798 7.90199 15.1531 7.90554 14.7695C7.90199 14.3931 8.03516 14.0717 8.30504 13.8054C8.57848 13.5355 8.90696 13.4006 9.29048 13.4006C9.6527 13.4006 9.9723 13.5355 10.2493 13.8054C10.5298 14.0717 10.6719 14.3931 10.6754 14.7695C10.6719 15.0252 10.6044 15.2578 10.473 15.4673C10.3452 15.6768 10.1765 15.8437 9.96697 15.968C9.76101 16.0923 9.53551 16.1545 9.29048 16.1545ZM13.8608 16.1545C13.4773 16.1545 13.1488 16.0195 12.8754 15.7496C12.6055 15.4798 12.4723 15.1531 12.4759 14.7695C12.4723 14.3931 12.6055 14.0717 12.8754 13.8054C13.1488 13.5355 13.4773 13.4006 13.8608 13.4006C14.223 13.4006 14.5426 13.5355 14.8196 13.8054C15.1001 14.0717 15.2422 14.3931 15.2457 14.7695C15.2422 15.0252 15.1747 15.2578 15.0433 15.4673C14.9155 15.6768 14.7468 15.8437 14.5373 15.968C14.3313 16.0923 14.1058 16.1545 13.8608 16.1545ZM18.4311 16.1545C18.0476 16.1545 17.7191 16.0195 17.4457 15.7496C17.1758 15.4798 17.0426 15.1531 17.0462 14.7695C17.0426 14.3931 17.1758 14.0717 17.4457 13.8054C17.7191 13.5355 18.0476 13.4006 18.4311 13.4006C18.7933 13.4006 19.1129 13.5355 19.3899 13.8054C19.6705 14.0717 19.8125 14.3931 19.8161 14.7695C19.8125 15.0252 19.745 15.2578 19.6136 15.4673C19.4858 15.6768 19.3171 15.8437 19.1076 15.968C18.9016 16.0923 18.6761 16.1545 18.4311 16.1545Z" fill="#92CFF5"/>
<defs>
<linearGradient id="paint0_linear_528_14933" x1="13" y1="4" x2="13" y2="26" gradientUnits="userSpaceOnUse">
<stop stop-color="#A1F1FC"/>
<stop offset="1" stop-color="#83ADEF"/>
</linearGradient>
</defs>
</svg>
