<svg width="30" height="30" viewBox="0 0 30 30" fill="none" xmlns="http://www.w3.org/2000/svg">
<path d="M8.75 26.25H3.75C3.41848 26.25 3.10054 26.1183 2.86612 25.8839C2.6317 25.6495 2.5 25.3315 2.5 25V15C2.5 14.6685 2.6317 14.3505 2.86612 14.1161C3.10054 13.8817 3.41848 13.75 3.75 13.75H8.75M8.75 26.25L13.75 27.5H21.25C22.0616 27.546 22.8661 27.3271 23.5425 26.8762C24.2188 26.4253 24.7303 25.7668 25 25L27.5 15C27.6234 14.5578 27.6517 14.0878 27.5827 13.6302C27.5137 13.1726 27.3492 12.741 27.1035 12.3725C26.8578 12.0039 26.5381 11.7093 26.1718 11.5138C25.8054 11.3183 25.4034 11.2278 25 11.25H17.5V6.25C17.5 5.25544 17.1049 4.30161 16.4017 3.59835C15.6984 2.89509 14.7446 2.5 13.75 2.5L8.75 13.75M8.75 26.25V13.75" stroke="url(#paint0_linear_2373_27799)" stroke-width="3" stroke-linecap="round" stroke-linejoin="round"/>
<defs>
<linearGradient id="paint0_linear_2373_27799" x1="15.0598" y1="2.5" x2="15.0598" y2="27.506" gradientUnits="userSpaceOnUse">
<stop stop-color="#A1F1FC"/>
<stop offset="1" stop-color="#83ADEF"/>
</linearGradient>
</defs>
</svg>
