<svg width="82" height="81" viewBox="0 0 82 81" fill="none" xmlns="http://www.w3.org/2000/svg">
<path d="M50.0329 0H31.3223C14.0503 0 0 15.0384 0 33.5201V75.6687C0 77.7656 1.19109 79.6648 3.03209 80.5059C3.68892 80.8062 4.37814 80.9587 5.08123 80.9587C6.31396 80.9587 7.50736 80.4797 8.44174 79.61L13.2801 75.1063C14.95 73.5527 17.0777 72.6805 19.268 72.6543C25.6051 72.5685 32.0763 72.6138 38.3324 72.6591L39.0008 72.6638C42.6157 72.6901 46.3555 72.7163 50.0306 72.7163C67.3003 72.7163 81.3529 57.6778 81.3529 39.1962V33.5201C81.3552 15.036 67.3049 0 50.0329 0ZM73.9219 33.5201V39.1938C73.9219 53.4554 63.2043 65.0577 50.0329 65.0577C46.3162 65.0577 42.5371 65.0314 38.8783 65.0052L38.3532 65.0005C32.0694 64.9552 25.5727 64.9099 19.1755 64.9957C15.1766 65.0481 11.3142 66.6208 8.30066 69.4231L7.43104 70.2309V33.5201C7.43104 19.2585 18.1486 7.65623 31.32 7.65623H50.0306C63.2066 7.65623 73.9219 19.2585 73.9219 33.5201Z" fill="url(#paint0_linear_1625_10201)"/>
<path d="M20.7844 35.6174C22.9456 35.6174 24.6976 33.8123 24.6976 31.5856C24.6976 29.3588 22.9456 27.5537 20.7844 27.5537C18.6231 27.5537 16.8711 29.3588 16.8711 31.5856C16.8711 33.8123 18.6231 35.6174 20.7844 35.6174Z" fill="#C5E5E8"/>
<path d="M60.4643 27.5537H30.7609C28.6031 27.5537 26.8477 29.3623 26.8477 31.5856C26.8477 33.8088 28.6031 35.6174 30.7609 35.6174H60.4643C62.6221 35.6174 64.3775 33.8088 64.3775 31.5856C64.3775 29.3623 62.6221 27.5537 60.4643 27.5537Z" fill="#C5E5E8"/>
<path d="M60.4582 40.29H20.7844C18.6265 40.29 16.8711 42.0987 16.8711 44.3219C16.8711 46.5451 18.6265 48.3537 20.7844 48.3537H60.4582C62.6161 48.3537 64.3715 46.5451 64.3715 44.3219C64.3715 42.0987 62.6161 40.29 60.4582 40.29Z" fill="#BFDDE8"/>
<defs>
<linearGradient id="paint0_linear_1625_10201" x1="40.6765" y1="0" x2="40.6765" y2="80.9587" gradientUnits="userSpaceOnUse">
<stop stop-color="#C2F5DF"/>
<stop offset="1" stop-color="#8BB0DD"/>
</linearGradient>
</defs>
</svg>
