<svg width="24" height="24" viewBox="0 0 24 24" fill="none" xmlns="http://www.w3.org/2000/svg">
<path d="M16 4H18C18.5304 4 19.0391 4.21071 19.4142 4.58579C19.7893 4.96086 20 5.46957 20 6V20C20 20.5304 19.7893 21.0391 19.4142 21.4142C19.0391 21.7893 18.5304 22 18 22H6C5.46957 22 4.96086 21.7893 4.58579 21.4142C4.21071 21.0391 4 20.5304 4 20V6C4 5.46957 4.21071 4.96086 4.58579 4.58579C4.96086 4.21071 5.46957 4 6 4H8M9 2H15C15.5523 2 16 2.44772 16 3V5C16 5.55228 15.5523 6 15 6H9C8.44772 6 8 5.55228 8 5V3C8 2.44772 8.44772 2 9 2Z" stroke="url(#paint0_linear_1279_4488)" stroke-width="1.77778" stroke-linecap="round" stroke-linejoin="round"/>
<g clip-path="url(#clip0_1279_4488)">
<path d="M16.4414 17.3335L14.5081 15.4002M15.5525 12.8891C15.5525 14.8527 13.9606 16.4446 11.997 16.4446C10.0333 16.4446 8.44141 14.8527 8.44141 12.8891C8.44141 10.9254 10.0333 9.3335 11.997 9.3335C13.9606 9.3335 15.5525 10.9254 15.5525 12.8891Z" stroke="url(#paint1_linear_1279_4488)" stroke-width="1.77778" stroke-linecap="round" stroke-linejoin="round"/>
</g>
<defs>
<linearGradient id="paint0_linear_1279_4488" x1="12" y1="2" x2="12" y2="22" gradientUnits="userSpaceOnUse">
<stop stop-color="#C2F5DF"/>
<stop offset="1" stop-color="#8BB0DD"/>
</linearGradient>
<linearGradient id="paint1_linear_1279_4488" x1="12.4414" y1="9.3335" x2="12.4414" y2="17.3335" gradientUnits="userSpaceOnUse">
<stop stop-color="#C2F5DF"/>
<stop offset="1" stop-color="#8BB0DD"/>
</linearGradient>
<clipPath id="clip0_1279_4488">
<rect width="10.6667" height="10.6667" fill="white" transform="translate(7.10938 8)"/>
</clipPath>
</defs>
</svg>
