<svg width="43" height="43" viewBox="0 0 43 43" fill="none" xmlns="http://www.w3.org/2000/svg">
<path d="M30.7849 21.3096C30.7848 15.8333 26.3455 11.3939 20.8692 11.3939C15.3929 11.394 10.9536 15.8334 10.9535 21.3096C10.9535 26.7859 15.3929 31.2252 20.8692 31.2253C26.3456 31.2253 30.7849 26.786 30.7849 21.3096ZM33.2189 21.3096C33.2189 28.1302 27.6898 33.6593 20.8692 33.6593C14.0487 33.6592 8.51953 28.1302 8.51953 21.3096C8.51961 14.4891 14.0487 8.96004 20.8692 8.95996C27.6898 8.95996 33.2188 14.4891 33.2189 21.3096Z" fill="#D9DADD"/>
<path d="M16.4492 18.1944C16.4492 17.5923 16.6425 16.9838 17.0292 16.3689C17.4158 15.7478 17.98 15.2344 18.7216 14.8287C19.4631 14.423 20.3283 14.2202 21.3171 14.2202C22.2362 14.2202 23.0475 14.3914 23.7511 14.7336C24.4547 15.0696 24.9966 15.5291 25.3769 16.1122C25.7636 16.6954 25.9569 17.3292 25.9569 18.0138C25.9569 18.5525 25.846 19.0248 25.6241 19.4304C25.4086 19.8361 25.1487 20.1879 24.8445 20.4858C24.5466 20.7773 24.0078 21.2717 23.2282 21.969C23.0127 22.1655 22.8384 22.3398 22.7053 22.4919C22.5785 22.6377 22.4834 22.7739 22.42 22.9007C22.3566 23.0211 22.3059 23.1447 22.2679 23.2715C22.2362 23.3919 22.1855 23.6074 22.1158 23.918C21.9954 24.5772 21.6182 24.9068 20.9844 24.9068C20.6548 24.9068 20.3759 24.7991 20.1477 24.5836C19.9259 24.3681 19.8149 24.048 19.8149 23.6233C19.8149 23.0909 19.8973 22.6313 20.0621 22.2447C20.2269 21.8517 20.4456 21.5094 20.7182 21.2179C20.9907 20.9199 21.3583 20.5682 21.821 20.1625C22.2267 19.8076 22.5183 19.5413 22.6958 19.3639C22.8796 19.18 23.0317 18.9772 23.1521 18.7554C23.2789 18.5335 23.3423 18.2927 23.3423 18.0328C23.3423 17.5257 23.1521 17.0979 22.7718 16.7493C22.3978 16.4006 21.913 16.2263 21.3171 16.2263C20.6199 16.2263 20.1065 16.4038 19.7769 16.7588C19.4473 17.1074 19.1684 17.624 18.9402 18.3085C18.7247 19.0248 18.3159 19.3829 17.7137 19.3829C17.3588 19.3829 17.0577 19.2593 16.8105 19.0121C16.5696 18.7585 16.4492 18.486 16.4492 18.1944ZM21.089 28.6148C20.7023 28.6148 20.3632 28.4912 20.0716 28.244C19.7864 27.9905 19.6438 27.6387 19.6438 27.1887C19.6438 26.7893 19.7832 26.4534 20.0621 26.1809C20.341 25.9083 20.6833 25.772 21.089 25.772C21.4883 25.772 21.8242 25.9083 22.0968 26.1809C22.3693 26.4534 22.5056 26.7893 22.5056 27.1887C22.5056 27.6324 22.363 27.981 22.0778 28.2345C21.7925 28.4881 21.4629 28.6148 21.089 28.6148Z" fill="#D9DADD"/>
</svg>
