<svg width="24" height="24" viewBox="0 0 24 24" fill="none" xmlns="http://www.w3.org/2000/svg">
<path d="M14.4858 0.856934H9.16061C4.24489 0.856934 0.246094 5.13696 0.246094 10.397V22.3927C0.246094 22.9895 0.585086 23.53 1.10904 23.7694C1.29598 23.8548 1.49214 23.8982 1.69224 23.8982C2.04308 23.8982 2.38273 23.7619 2.64866 23.5144L4.02569 22.2326C4.50094 21.7905 5.10652 21.5422 5.72987 21.5348C7.53344 21.5104 9.37519 21.5232 11.1557 21.5361L11.346 21.5375C12.3748 21.5449 13.4392 21.5524 14.4851 21.5524C19.4002 21.5524 23.3996 17.2724 23.3996 12.0124V10.397C23.4003 5.13628 19.4015 0.856934 14.4858 0.856934ZM21.2847 10.397V12.0117C21.2847 16.0706 18.2344 19.3727 14.4858 19.3727C13.428 19.3727 12.3524 19.3653 11.3111 19.3578L11.1616 19.3564C9.37322 19.3436 7.52423 19.3307 5.70354 19.3551C4.56545 19.37 3.46619 19.8176 2.60851 20.6152L2.36101 20.8451V10.397C2.36101 6.33802 5.41128 3.03594 9.15995 3.03594H14.4851C18.2351 3.03594 21.2847 6.33802 21.2847 10.397Z" fill="url(#paint0_linear_1232_4191)"/>
<path d="M6.16061 10.9937C6.77571 10.9937 7.27435 10.48 7.27435 9.84622C7.27435 9.21248 6.77571 8.69873 6.16061 8.69873C5.54551 8.69873 5.04688 9.21248 5.04688 9.84622C5.04688 10.48 5.54551 10.9937 6.16061 10.9937Z" fill="#C5E5E8"/>
<path d="M17.4542 8.69873H9.00046C8.38632 8.69873 7.88672 9.21347 7.88672 9.84622C7.88672 10.479 8.38632 10.9937 9.00046 10.9937H17.4542C18.0683 10.9937 18.5679 10.479 18.5679 9.84622C18.5679 9.21347 18.0683 8.69873 17.4542 8.69873Z" fill="#C5E5E8"/>
<path d="M17.452 12.3237H6.16061C5.54648 12.3237 5.04688 12.8385 5.04688 13.4712C5.04688 14.104 5.54648 14.6187 6.16061 14.6187H17.452C18.0662 14.6187 18.5658 14.104 18.5658 13.4712C18.5658 12.8385 18.0662 12.3237 17.452 12.3237Z" fill="#BFDDE8"/>
<defs>
<linearGradient id="paint0_linear_1232_4191" x1="11.8229" y1="0.856934" x2="11.8229" y2="23.8982" gradientUnits="userSpaceOnUse">
<stop stop-color="#C2F5DF"/>
<stop offset="1" stop-color="#8BB0DD"/>
</linearGradient>
</defs>
</svg>
