<svg width="33" height="33" viewBox="0 0 33 33" fill="none" xmlns="http://www.w3.org/2000/svg">
<g opacity="0.8">
<path d="M16.4996 0C7.40167 0 0 7.40252 0 16.5004C0 25.5983 7.40167 33.0009 16.4996 33.0009C25.5983 33.0009 33 25.5983 33 16.5004C33 7.40252 25.5983 0 16.4996 0Z" fill="url(#paint0_linear_1232_4136)"/>
<path d="M18.536 6.85352H15.1213C11.018 6.85352 7.69141 10.3264 7.69141 14.6102V17.1301V25.6207C7.69141 25.9458 8.05751 26.1203 8.29274 25.9081L9.5955 24.732C10.2268 24.1623 11.0308 23.8432 11.8657 23.833L13.455 23.8124L13.4542 23.8116C13.6757 23.8355 13.8998 23.8492 14.1282 23.8492H18.5369C22.6402 23.8492 25.9668 20.3763 25.9668 16.0926V14.6102C25.9659 10.3264 22.6393 6.85352 18.536 6.85352Z" fill="white"/>
<path d="M12.2846 14.846C11.8749 14.846 11.543 14.5141 11.543 14.1044C11.543 13.6947 11.8749 13.3628 12.2846 13.3628C12.6943 13.3628 13.0262 13.6947 13.0262 14.1044C13.0271 14.5133 12.6943 14.846 12.2846 14.846Z" fill="url(#paint1_linear_1232_4136)"/>
<path d="M21.3417 14.846H14.9682C14.5585 14.846 14.2266 14.5141 14.2266 14.1044C14.2266 13.6947 14.5585 13.3628 14.9682 13.3628H21.3417C21.7514 13.3628 22.0833 13.6947 22.0833 14.1044C22.0842 14.5133 21.7514 14.846 21.3417 14.846Z" fill="url(#paint2_linear_1232_4136)"/>
<path d="M21.3414 18.1737H12.2846C11.8749 18.1737 11.543 17.8418 11.543 17.432C11.543 17.0223 11.8749 16.6904 12.2846 16.6904H21.3414C21.7512 16.6904 22.0831 17.0223 22.0831 17.432C22.0839 17.8418 21.7512 18.1737 21.3414 18.1737Z" fill="url(#paint3_linear_1232_4136)"/>
</g>
<defs>
<linearGradient id="paint0_linear_1232_4136" x1="16.5" y1="0" x2="16.5" y2="33.0009" gradientUnits="userSpaceOnUse">
<stop stop-color="#4B5F77"/>
<stop offset="1" stop-color="#8BB0DD"/>
</linearGradient>
<linearGradient id="paint1_linear_1232_4136" x1="12.2846" y1="13.3628" x2="12.2846" y2="14.846" gradientUnits="userSpaceOnUse">
<stop stop-color="#4B5F77"/>
<stop offset="1" stop-color="#8BB0DD"/>
</linearGradient>
<linearGradient id="paint2_linear_1232_4136" x1="18.1549" y1="13.3628" x2="18.1549" y2="14.846" gradientUnits="userSpaceOnUse">
<stop stop-color="#4B5F77"/>
<stop offset="1" stop-color="#8BB0DD"/>
</linearGradient>
<linearGradient id="paint3_linear_1232_4136" x1="16.813" y1="16.6904" x2="16.813" y2="18.1737" gradientUnits="userSpaceOnUse">
<stop stop-color="#4B5F77"/>
<stop offset="1" stop-color="#8BB0DD"/>
</linearGradient>
</defs>
</svg>
