<svg width="48" height="48" viewBox="0 0 48 48" fill="none" xmlns="http://www.w3.org/2000/svg">
<path d="M38 18C39.1046 18 40 18.8954 40 20V24C40 28.2435 38.3141 32.3129 35.3135 35.3135C32.7883 37.8387 29.5059 39.4313 26 39.873V44H32C33.1046 44 34 44.8954 34 46C34 47.1046 33.1046 48 32 48H16C14.8954 48 14 47.1046 14 46C14 44.8954 14.8954 44 16 44H22V39.874C18.4941 39.4323 15.2118 37.8387 12.6865 35.3135C9.77975 32.4067 8.10664 28.4969 8.00488 24.3975L8 24V20C8 18.8954 8.89543 18 10 18C11.1046 18 12 18.8954 12 20V24L12.0146 24.5947C12.1617 27.5608 13.4048 30.3755 15.5146 32.4854C17.7651 34.7358 20.8174 36 24 36L24.5947 35.9854C27.5608 35.8383 30.3755 34.5952 32.4854 32.4854C34.5952 30.3755 35.8383 27.5608 35.9854 24.5947L36 24V20C36 18.8954 36.8954 18 38 18ZM24.3965 0.00976562C26.3739 0.107809 28.2507 0.9362 29.6572 2.34277C31.1575 3.84307 32 5.87827 32 8V24C32 26.1217 31.1575 28.1569 29.6572 29.6572C28.1569 31.1575 26.1217 32 24 32C21.8783 32 19.8431 31.1575 18.3428 29.6572C16.8425 28.1569 16 26.1217 16 24V8C16 5.87827 16.8425 3.84307 18.3428 2.34277C19.8431 0.842482 21.8783 0 24 0L24.3965 0.00976562ZM24 4C22.9391 4 21.922 4.42173 21.1719 5.17188C20.4217 5.92202 20 6.93913 20 8V24C20 25.0609 20.4217 26.078 21.1719 26.8281C21.922 27.5783 22.9391 28 24 28C25.0609 28 26.078 27.5783 26.8281 26.8281C27.5783 26.078 28 25.0609 28 24V8C28 6.93913 27.5783 5.92202 26.8281 5.17188C26.1248 4.46859 25.1869 4.0539 24.1982 4.00488L24 4Z" fill="url(#paint0_linear_1268_4221)"/>
<defs>
<linearGradient id="paint0_linear_1268_4221" x1="24" y1="48" x2="24" y2="0" gradientUnits="userSpaceOnUse">
<stop stop-color="#395469"/>
<stop offset="1" stop-color="#70A6CF"/>
</linearGradient>
</defs>
</svg>
