<svg width="58" height="58" viewBox="0 0 58 58" fill="none" xmlns="http://www.w3.org/2000/svg">
<rect x="1.5" y="1.5" width="55" height="55" rx="27.5" fill="#D9D9D9" fill-opacity="0.2" stroke="url(#paint0_linear_1268_4359)" stroke-width="3"/>
<path d="M24 18.75H20.25C19.587 18.75 18.9511 19.0134 18.4822 19.4822C18.0134 19.9511 17.75 20.587 17.75 21.25V25M40.25 25V21.25C40.25 20.587 39.9866 19.9511 39.5178 19.4822C39.0489 19.0134 38.413 18.75 37.75 18.75H34M34 41.25H37.75C38.413 41.25 39.0489 40.9866 39.5178 40.5178C39.9866 40.0489 40.25 39.413 40.25 38.75V35M17.75 35V38.75C17.75 39.413 18.0134 40.0489 18.4822 40.5178C18.9511 40.9866 19.587 41.25 20.25 41.25H24" stroke="url(#paint1_linear_1268_4359)" stroke-width="3" stroke-linecap="round" stroke-linejoin="round"/>
<path d="M15 30H43" stroke="#B3DFF8" stroke-width="2.5" stroke-linecap="round"/>
<defs>
<linearGradient id="paint0_linear_1268_4359" x1="29" y1="0" x2="29" y2="58" gradientUnits="userSpaceOnUse">
<stop stop-color="#F2F3F7"/>
<stop offset="1" stop-color="#79CDFA"/>
</linearGradient>
<linearGradient id="paint1_linear_1268_4359" x1="29" y1="18.75" x2="29" y2="41.25" gradientUnits="userSpaceOnUse">
<stop stop-color="#F2F3F7"/>
<stop offset="1" stop-color="#79CDFA"/>
</linearGradient>
</defs>
</svg>
