<svg width="25" height="25" viewBox="0 0 25 25" fill="none" xmlns="http://www.w3.org/2000/svg">
<g clip-path="url(#clip0_1268_4443)">
<path d="M1.04297 4.16672V10.4167M1.04297 10.4167H7.29297M1.04297 10.4167L5.8763 5.87505C7.31475 4.43903 9.18094 3.50939 11.1937 3.22621C13.2064 2.94303 15.2567 3.32165 17.0355 4.30501C18.8144 5.28838 20.2254 6.82322 21.0561 8.67828C21.8868 10.5333 22.0921 12.6081 21.6411 14.59C21.1901 16.5719 20.1072 18.3535 18.5556 19.6665C17.004 20.9794 15.0677 21.7525 13.0385 21.8693C11.0093 21.9861 8.99711 21.4402 7.30511 20.314C5.61311 19.1877 4.33296 17.5421 3.65755 15.6251" stroke="white" stroke-width="3" stroke-linecap="round" stroke-linejoin="round"/>
</g>
<defs>
<clipPath id="clip0_1268_4443">
<rect width="25" height="25" fill="white"/>
</clipPath>
</defs>
</svg>
