<svg width="35" height="35" viewBox="0 0 35 35" fill="none" xmlns="http://www.w3.org/2000/svg">
<mask id="mask0_1566_9225" style="mask-type:alpha" maskUnits="userSpaceOnUse" x="0" y="0" width="35" height="35">
<circle cx="17.5" cy="17.5" r="17.5" fill="#D9D9D9"/>
</mask>
<g mask="url(#mask0_1566_9225)">
<circle cx="17.5" cy="17.5" r="17.5" fill="#D7D5F5"/>
<path d="M27.8346 32.125V29.5417C27.8346 28.1714 27.2903 26.8572 26.3214 25.8883C25.3524 24.9193 24.0383 24.375 22.668 24.375H12.3346C10.9644 24.375 9.65019 24.9193 8.68125 25.8883C7.71231 26.8572 7.16797 28.1714 7.16797 29.5417V32.125M22.668 14.0417C22.668 16.8951 20.3548 19.2083 17.5013 19.2083C14.6478 19.2083 12.3346 16.8951 12.3346 14.0417C12.3346 11.1882 14.6478 8.875 17.5013 8.875C20.3548 8.875 22.668 11.1882 22.668 14.0417Z" stroke="white" stroke-width="2" stroke-linecap="round" stroke-linejoin="round"/>
</g>
</svg>
