<svg width="37" height="28" viewBox="0 0 37 28" fill="none" xmlns="http://www.w3.org/2000/svg">
<path d="M36.6667 23.25V20.6667C36.6667 19.2964 36.1223 17.9822 35.1534 17.0133C34.1844 16.0443 32.8703 15.5 31.5 15.5H21.1667C19.7964 15.5 18.4822 16.0443 17.5133 17.0133C16.5443 17.9822 16 19.2964 16 20.6667V23.25" fill="#E3EBF6"/>
<path d="M26.3333 10.3333C29.1868 10.3333 31.5 8.02014 31.5 5.16667C31.5 2.3132 29.1868 0 26.3333 0C23.4799 0 21.1667 2.3132 21.1667 5.16667C21.1667 8.02014 23.4799 10.3333 26.3333 10.3333Z" fill="#E3EBF6"/>
<path d="M20.6667 25.25V22.6667C20.6667 21.2964 20.1223 19.9822 19.1534 19.0133C18.1844 18.0443 16.8703 17.5 15.5 17.5H5.16667C3.79638 17.5 2.48222 18.0443 1.51328 19.0133C0.544343 19.9822 0 21.2964 0 22.6667V25.25" fill="#D9E3F3"/>
<path d="M10.3333 12.3333C13.1868 12.3333 15.5 10.0201 15.5 7.16667C15.5 4.3132 13.1868 2 10.3333 2C7.47986 2 5.16667 4.3132 5.16667 7.16667C5.16667 10.0201 7.47986 12.3333 10.3333 12.3333Z" fill="#D9E3F3"/>
<path d="M28.6667 27.625V25.0417C28.6667 23.6714 28.1223 22.3572 27.1534 21.3883C26.1844 20.4193 24.8703 19.875 23.5 19.875H13.1667C11.7964 19.875 10.4822 20.4193 9.51328 21.3883C8.54434 22.3572 8 23.6714 8 25.0417V27.625" fill="#BED5F9"/>
<path d="M18.3333 14.7083C21.1868 14.7083 23.5 12.3951 23.5 9.54167C23.5 6.6882 21.1868 4.375 18.3333 4.375C15.4799 4.375 13.1667 6.6882 13.1667 9.54167C13.1667 12.3951 15.4799 14.7083 18.3333 14.7083Z" fill="#BED5F9"/>
</svg>
